<?xml version="1.0" encoding="UTF-8"?>
<svg id="Capa_2" data-name="Capa 2" xmlns="http://www.w3.org/2000/svg" viewBox="0 0 17.54 19.12">
  <defs>
    <style>
      .cls-1 {
        fill: #fff;
        stroke-width: 0px;
      }
    </style>
  </defs>
  <g id="Capa_1-2" data-name="Capa 1">
    <g>
      <path class="cls-1" d="m4.7,11.7h1.32v4.14c0,.13.1.23.23.23h1.16c.13,0,.23-.1.23-.23v-6.33c0-.13-.1-.23-.23-.23h-.99c-.13,0-.23.1-.23.23,0,.01,0,.06-.04.19-.05.15-.11.28-.19.36-.13.13-.29.22-.49.27-.14.03-.41.06-.78.07-.12,0-.22.11-.22.23v.85c0,.13.1.23.23.23Zm.23-.86c.29-.02.5-.04.64-.07.29-.06.54-.2.72-.4.13-.14.23-.32.3-.55,0-.03.02-.06.02-.09h.57v5.88h-.71v-4.15c0-.13-.1-.23-.23-.23h-1.32v-.4Z"/>
      <path class="cls-1" d="m8.98,15.59c.43.36.97.54,1.63.54.81,0,1.44-.26,1.86-.77.41-.5.61-1.07.61-1.71,0-.73-.22-1.31-.66-1.7-.43-.39-.94-.59-1.52-.59-.29,0-.53.04-.74.11-.03.01-.07.03-.11.05l.06-.74h2.07c.13,0,.23-.1.23-.23v-1.05c0-.13-.1-.23-.23-.23h-3.39c-.12,0-.22.09-.23.21l-.24,3.49c0,.06.02.12.06.17.04.05.1.07.16.08l1.24.05c.09,0,.17-.04.21-.12.07-.14.17-.23.31-.28.09-.03.19-.04.32-.04.24,0,.41.07.52.23.12.18.19.41.19.69s-.07.51-.2.68c-.12.16-.28.23-.52.23-.2,0-.35-.05-.44-.15-.11-.11-.18-.28-.22-.51-.02-.11-.11-.19-.22-.19h-1.24c-.06,0-.12.03-.17.07-.04.05-.06.11-.06.17.05.65.29,1.17.72,1.53Zm.56-1.32c.06.23.16.41.3.55.18.19.44.29.77.29.38,0,.68-.14.88-.42.19-.26.29-.58.29-.95s-.09-.68-.26-.94c-.19-.29-.5-.43-.89-.43-.17,0-.33.02-.47.07-.2.07-.36.2-.49.37l-.87-.04.21-3.05h2.95v.6h-2.05c-.12,0-.22.09-.23.21l-.11,1.38c0,.09.04.17.11.21.07.04.17.04.24,0,.22-.14.34-.2.4-.23.15-.06.35-.09.58-.09.47,0,.87.15,1.21.47.34.31.51.76.51,1.37,0,.53-.17,1-.51,1.42-.33.41-.82.6-1.5.6-.55,0-.99-.14-1.33-.43-.29-.24-.46-.56-.53-.97h.8Z"/>
      <path class="cls-1" d="m15.61,2.95h-.56s-.09.01-.14.03v-1.86c0-.62-.5-1.12-1.12-1.12s-1.12.5-1.12,1.12v1.84s-.04,0-.06,0h-7.69s-.06,0-.08.01v-1.85c0-.62-.5-1.12-1.12-1.12s-1.12.5-1.12,1.12v1.86s-.07-.02-.11-.02h-.56c-1.07,0-1.93.87-1.93,1.93v12.3c0,1.06.87,1.93,1.93,1.93h13.68c1.06,0,1.93-.87,1.93-1.93V4.89c0-1.07-.87-1.93-1.93-1.93Zm-2.31-1.83c0-.27.22-.49.49-.49s.49.22.49.49v3.37c0,.27-.22.49-.49.49s-.49-.22-.49-.49V1.12ZM3.23,1.12c0-.27.22-.49.49-.49s.49.22.49.49v3.37c0,.27-.22.49-.49.49s-.49-.22-.49-.49V1.12Zm13.63,16.07c0,.69-.56,1.25-1.25,1.25H1.93c-.69,0-1.25-.56-1.25-1.25V4.89c0-.69.56-1.25,1.25-1.25h.22v.67c0,.86.7,1.56,1.56,1.56s1.56-.7,1.56-1.56v-.67h7.01v.67c0,.86.7,1.56,1.56,1.56s1.56-.7,1.56-1.56v-.67h.22c.69,0,1.25.56,1.25,1.25v12.3Z"/>
      <path class="cls-1" d="m15.87,7.86H1.73c-.19,0-.34.15-.34.34v8.36c0,.65.53,1.17,1.17,1.17h12.48c.65,0,1.17-.53,1.17-1.17v-8.36c0-.19-.15-.34-.34-.34Zm-.34,8.7c0,.27-.22.49-.49.49H2.56c-.27,0-.49-.22-.49-.49v-8.02h13.46v8.02Z"/>
    </g>
  </g>
</svg>