<?xml version="1.0" encoding="UTF-8"?>
<svg id="Capa_2" data-name="Capa 2" xmlns="http://www.w3.org/2000/svg" viewBox="0 0 20.49 12.86">
  <defs>
    <style>
      .cls-1 {
        fill: #00d7e2;
        stroke-width: 0px;
      }
    </style>
  </defs>
  <g id="Capa_1-2" data-name="Capa 1">
    <g>
      <path class="cls-1" d="m2.41,11.95l1.97-4.03h3.93s1.97,4.03,1.97,4.03c.28.57.81.91,1.31.91.16,0,.31-.03.46-.1.31-.15.53-.45.6-.83.07-.34.01-.73-.16-1.07L7.64.92c-.17-.35-.45-.63-.77-.79l-.04-.02c-.14-.07-.29-.1-.44-.1-.02,0-.03,0-.05,0h-.03c-.16,0-.31.04-.45.11-.01,0-.03.01-.04.02-.33.15-.6.43-.77.79L.18,10.86c-.17.35-.22.73-.16,1.07.08.37.3.68.6.83.61.3,1.41-.06,1.77-.81Zm-1.68-.16c-.04-.19,0-.42.1-.62L5.69,1.23c.11-.21.27-.38.46-.47h.02s.02-.02.02-.02c.04-.02.08-.02.13-.03h.04s.09,0,.13.02l.05.03c.18.08.35.25.46.47l4.87,9.95c.1.2.14.43.1.62-.02.09-.07.26-.22.33-.26.13-.64-.1-.83-.48l-2.16-4.42H3.94s-2.17,4.42-2.17,4.42c-.19.39-.57.61-.83.48-.15-.07-.2-.24-.22-.33Z"/>
      <path class="cls-1" d="m6.35,2.29l-1.92,3.91h3.84s-1.92-3.91-1.92-3.91Zm0,1.61l.78,1.6h-1.57s.78-1.6.78-1.6Z"/>
      <path class="cls-1" d="m19.28,4.83h0c-.67,0-1.19.42-1.21.96-.47-.21-.99-.32-1.52-.32-2.04,0-3.7,1.66-3.7,3.7s1.66,3.7,3.7,3.7c.6,0,1.19-.14,1.72-.42.22.26.58.42.99.42h0c.3,0,.59-.09.81-.25.25-.19.4-.45.4-.73l.02-6.06c0-.23-.09-.45-.27-.62-.23-.23-.57-.36-.94-.36Zm.48,7.05c0,.07-.07.14-.11.16-.1.07-.23.11-.39.11-.27,0-.48-.14-.49-.26-.02-.12-.09-.22-.21-.27-.05-.02-.1-.03-.14-.03-.07,0-.14.02-.2.06-.49.33-1.07.51-1.67.51-1.65,0-2.99-1.34-2.99-2.99s1.34-2.99,2.99-2.99c.6,0,1.18.18,1.67.51.11.07.25.08.36.02.12-.06.19-.18.19-.31v-.57c0-.11.2-.27.5-.27h0c.18,0,.34.06.44.15.03.03.06.07.06.12l-.02,6.06Z"/>
      <path class="cls-1" d="m16.55,6.95c-1.22,0-2.22.99-2.22,2.22s.99,2.22,2.22,2.22,2.22-.99,2.22-2.22-.99-2.22-2.22-2.22Zm0,3.72c-.83,0-1.51-.68-1.51-1.51s.68-1.51,1.51-1.51,1.51.68,1.51,1.51-.68,1.51-1.51,1.51Z"/>
    </g>
  </g>
</svg>