<?xml version="1.0" encoding="UTF-8"?>
<svg id="Capa_2" data-name="Capa 2" xmlns="http://www.w3.org/2000/svg" viewBox="0 0 16.1 19.92">
  <defs>
    <style>
      .cls-1 {
        fill: #ff5f5f;
        stroke-width: 0px;
      }
    </style>
  </defs>
  <g id="Capa_1-2" data-name="Capa 1">
    <g>
      <path class="cls-1" d="m15.09,16.41s0-.1-.04-.15L7.06,2c-.04-.06-.09-.11-.17-.13-.07-.02-.15-.01-.21.02l-.41.23L5.14.11l-5.14-.11,2.41,4.3-.41.23s-.08.06-.1.1l-.08.05.05.08c0,.05,0,.1.03.14l8,14.26s.06.08.1.1l.17.3c.12.21.35.35.6.35.04,0,.08,0,.12-.01l4.65-.86c.08-.01.15-.04.21-.08.12-.07.22-.17.28-.31.09-.2.09-.43-.02-.62l-.91-1.63ZM7.18,3.34l7.27,12.96-1.02.57-.36-.65c.1-.44.03-.91-.19-1.3-.03-.05-.06-.1-.09-.14-.22-.32-.55-.57-.92-.69L6.16,3.91l1.02-.57Zm-.35,2.72l.79,1.41-1.97.14-.79-1.41,1.97-.14Zm-2.23-.31l-.41-.74,1.56-.88.82,1.47-1.97.14Zm3.27,2.17l.79,1.41-1.97.14-.79-1.41,1.97-.14Zm1.05,1.86l.79,1.41-1.96.16-.8-1.43,1.97-.15Zm1.05,1.86l.79,1.41-1.98.14-.78-1.39,1.96-.16Zm1.04,1.86l.26.47h0c-.31,0-.62.08-.89.23-.27.15-.5.37-.67.64l-.68-1.21,1.98-.14Zm-.4,1.11c.2-.11.43-.17.67-.17.5,0,.95.27,1.2.7.18.32.22.69.12,1.04-.04.13-.09.26-.16.37-.12.19-.28.34-.48.45h0c-.32.18-.69.22-1.04.12-.35-.1-.64-.33-.82-.65-.37-.66-.13-1.49.52-1.86Zm.67,3.03c.31,0,.62-.08.89-.23.27-.15.5-.37.67-.64l.2.36-1.56.88-.2-.35h0ZM.81.49l4.06.09.59,1.06-4.16-.27-.49-.87Zm.76,1.36l4.16.27.14.24-1.95,1.09-1.48-.06-.86-1.54Zm1.56,2.04l-.32.18-.11-.2.43.02Zm-.68.97l4.16-2.34.25.45-4.16,2.33-.25-.45Zm7.79,13.8L2.97,5.69l.81-.45,5.71,10.17c-.07.33-.06.67.05.99.04.11.08.21.14.31.2.35.5.62.87.78.05.02.09.04.14.06l.36.65-.81.45Zm5.37-.18c-.03.06-.09.11-.16.12l-4.65.86h0c-.09.02-.18-.03-.23-.11l-.11-.19,4.27-2.4.85,1.52c.03.06.04.13,0,.2Z"/>
      <path class="cls-1" d="m11.3,16.9c.6,0,1.09-.49,1.09-1.09s-.49-1.09-1.09-1.09-1.09.49-1.09,1.09.49,1.09,1.09,1.09Zm0-1.84c.42,0,.75.34.75.75s-.34.75-.75.75-.75-.34-.75-.75.34-.75.75-.75Z"/>
    </g>
  </g>
</svg>