<?xml version="1.0" encoding="UTF-8"?>
<svg id="Capa_2" data-name="Capa 2" xmlns="http://www.w3.org/2000/svg" viewBox="0 0 20.8 16.93">
  <defs>
    <style>
      .cls-1 {
        fill: #f726e8;
        stroke-width: 0px;
      }
    </style>
  </defs>
  <g id="Capa_1-2" data-name="Capa 1">
    <g>
      <path class="cls-1" d="m10.4,16.93C5.28,16.93,1.11,12.77,1.11,7.64c0-1.03.17-2.05.51-3.03.05-.14.17-.23.32-.23h16.93c.14,0,.27.09.32.23.18.52.31,1.05.4,1.59.03.18-.1.36-.28.39-.18.03-.36-.1-.39-.28-.07-.42-.16-.84-.29-1.24H2.18c-.26.84-.4,1.71-.4,2.59,0,4.75,3.87,8.62,8.62,8.62,4.28,0,7.86-3.06,8.51-7.28.03-.18.2-.31.38-.28.18.03.31.2.28.38-.71,4.55-4.57,7.85-9.18,7.85Z"/>
      <path class="cls-1" d="m19.07,5.06H1.73c-.95,0-1.73-.77-1.73-1.73s.77-1.73,1.73-1.73h.42V.34c0-.19.15-.34.34-.34h15.83c.19,0,.34.15.34.34v1.27h.42c.95,0,1.73.77,1.73,1.73s-.77,1.73-1.73,1.73ZM1.73,2.28c-.58,0-1.05.47-1.05,1.05s.47,1.05,1.05,1.05h17.34c.58,0,1.05-.47,1.05-1.05s-.47-1.05-1.05-1.05h-.75c-.19,0-.34-.15-.34-.34V.67H2.82v1.27c0,.19-.15.34-.34.34h-.75Z"/>
      <path class="cls-1" d="m10.4,14.42c-2.14,0-3.89-1.74-3.89-3.89s1.74-3.89,3.89-3.89,3.89,1.74,3.89,3.89-1.74,3.89-3.89,3.89Zm0-7.1c-1.77,0-3.21,1.44-3.21,3.21s1.44,3.21,3.21,3.21,3.21-1.44,3.21-3.21-1.44-3.21-3.21-3.21Z"/>
      <path class="cls-1" d="m10.4,12.13c-.88,0-1.6-.72-1.6-1.6,0-.19.15-.34.34-.34s.34.15.34.34c0,.51.42.93.93.93s.93-.42.93-.93-.42-.93-.93-.93c-.19,0-.34-.15-.34-.34s.15-.34.34-.34c.88,0,1.6.72,1.6,1.6s-.72,1.6-1.6,1.6Z"/>
      <path class="cls-1" d="m18.32,2.28H4.56c-.19,0-.34-.15-.34-.34s.15-.34.34-.34h13.75c.19,0,.34.15.34.34s-.15.34-.34.34Z"/>
    </g>
  </g>
</svg>