<?xml version="1.0" encoding="UTF-8"?>
<svg version="1.1" xmlns="http://www.w3.org/2000/svg" width="1280" height="1280">
<path d="M0 0 C422.4 0 844.8 0 1280 0 C1280 422.4 1280 844.8 1280 1280 C857.6 1280 435.2 1280 0 1280 C0 857.6 0 435.2 0 0 Z " fill="#FAFDFF" transform="translate(0,0)"/>
<path d="M0 0 C422.4 0 844.8 0 1280 0 C1280 422.4 1280 844.8 1280 1280 C857.6 1280 435.2 1280 0 1280 C0 857.6 0 435.2 0 0 Z M90 131 C88.83962929 134.48111212 88.87434937 137.18207991 88.87350017 140.85696644 C88.87197362 141.56306422 88.87044707 142.26916201 88.86887427 142.9966567 C88.86494783 145.38537487 88.86820095 147.77403072 88.87136555 150.16274929 C88.87002012 151.89092878 88.86823693 153.61910798 88.86605331 155.34728661 C88.86129873 160.13168731 88.86283287 164.9160691 88.86533108 169.70047076 C88.86695712 174.89211224 88.86282923 180.08374955 88.85942191 185.27538973 C88.8542551 194.38616127 88.85285292 203.49692749 88.85387802 212.60770035 C88.85539866 226.15542634 88.85125077 239.70314641 88.8460034 253.25087126 C88.83631552 278.85045464 88.83351801 304.4500351 88.83294634 330.04961985 C88.83288159 332.87464559 88.83281365 335.69967133 88.83274293 338.52469707 C88.83272592 339.22570051 88.83270892 339.92670395 88.8326914 340.64894993 C88.83228324 356.17143167 88.83009428 371.693913 88.82758708 387.21639453 C88.82655876 393.60457461 88.82556874 399.99275469 88.82457083 406.38093477 C88.82446025 407.08673591 88.82434966 407.79253705 88.82423572 408.51972611 C88.81791017 448.97461426 88.81378676 489.42950215 88.81424427 529.88439083 C88.81426005 531.3988915 88.81427578 532.91339217 88.81429148 534.42789283 C88.81436486 541.26601332 88.81445303 548.10413381 88.81454536 554.9422543 C88.81458649 557.99166018 88.81462663 561.04106607 88.81466668 564.09047195 C88.81468707 565.61675574 88.81470809 567.14303952 88.81472974 568.66932331 C88.81541014 616.94288208 88.80809062 665.21643352 88.79418945 713.48999023 C88.79068858 725.65388201 88.78721919 737.81777378 88.78392506 749.98166561 C88.78372218 750.73059223 88.78351931 751.47951886 88.78331029 752.25114023 C88.77709789 775.32391104 88.77333023 798.39668125 88.77206707 821.46945286 C88.77202712 822.19356222 88.77198717 822.91767157 88.77194601 823.66372364 C88.77109284 839.55761285 88.7708315 855.45150203 88.77111638 871.34539126 C88.77121287 877.03212294 88.77126491 882.71885462 88.77129511 888.4055863 C88.77130303 889.82036078 88.77131323 891.23513526 88.77132574 892.64990974 C88.77150224 915.21688518 88.76579658 937.78385435 88.75717192 960.35082798 C88.74829239 983.70334267 88.74668999 1007.05584634 88.75348405 1030.4083628 C88.75719237 1043.88267303 88.7553093 1057.3569558 88.74554171 1070.83126315 C88.73957526 1079.81785918 88.74079969 1088.80443517 88.74801221 1097.79103026 C88.75192213 1102.92044612 88.75258857 1108.04980854 88.74455485 1113.17922079 C88.73732134 1117.83821205 88.73915844 1122.49710494 88.74847872 1127.15609169 C88.75021144 1128.83812748 88.74853501 1130.52017081 88.74317751 1132.20219896 C88.73642116 1134.47414915 88.74184498 1136.74574823 88.75045234 1139.0176844 C88.75036412 1140.27920839 88.7502759 1141.54073238 88.750185 1142.84048438 C89.01065189 1146.77383649 89.01065189 1146.77383649 91 1150 C95.48997542 1151.26124431 100.09483878 1151.14148299 104.73085088 1151.12649983 C105.49507248 1151.12802638 106.25929409 1151.12955293 107.04667392 1151.13112573 C109.61541572 1151.13503212 112.1840989 1151.13180703 114.752841 1151.12863445 C116.61784296 1151.12998073 118.48284465 1151.13176441 120.34784582 1151.13394669 C125.49814574 1151.13868976 130.64842805 1151.13717081 135.79872885 1151.13466892 C141.39221189 1151.13303997 146.98569109 1151.13717321 152.57917291 1151.14057809 C162.39080223 1151.14574009 172.20242662 1151.14714791 182.01405716 1151.14612198 C192.54315253 1151.1450237 203.07224454 1151.14602959 213.60133934 1151.14969444 C214.26604557 1151.1499241 214.93075179 1151.15015375 215.61560064 1151.15039036 C218.322781 1151.15133198 221.02996135 1151.15228767 223.7371417 1151.15326155 C251.98755107 1151.16340954 280.23795845 1151.16646765 308.48836943 1151.16705366 C311.52967284 1151.16711841 314.57097624 1151.16718635 317.61227965 1151.16725707 C318.74429731 1151.16728258 318.74429731 1151.16728258 319.899184 1151.1673086 C336.61502321 1151.16771688 353.33086204 1151.16990618 370.04670105 1151.17241292 C376.92728106 1151.17344124 383.80786108 1151.17443127 390.6884411 1151.17542917 C391.4486532 1151.17553975 392.20886531 1151.17565034 392.99211415 1151.17576428 C436.55887887 1151.18208883 480.12564335 1151.18621333 523.69240856 1151.18575573 C525.32306102 1151.18573995 526.95371348 1151.18572422 528.58436593 1151.18570852 C535.94683931 1151.18563514 543.30931269 1151.18554697 550.67178607 1151.18545464 C553.95499294 1151.18541351 557.2381998 1151.18537337 560.52140667 1151.18533332 C562.16471062 1151.18531293 563.80801456 1151.18529191 565.45131851 1151.18527026 C617.43589168 1151.18458974 669.42045804 1151.19191204 721.4050293 1151.20581055 C734.50649355 1151.20931142 747.60795781 1151.21278081 760.70942211 1151.21607494 C761.91939991 1151.21637925 761.91939991 1151.21637925 763.15382171 1151.21668971 C788.00317138 1151.22290166 812.8525205 1151.22666967 837.70187092 1151.22793293 C838.48167528 1151.22797288 839.26147964 1151.22801283 840.06491443 1151.22805399 C857.18078754 1151.22890714 874.29666062 1151.22916851 891.41253375 1151.22888362 C897.53631758 1151.22878713 903.66010142 1151.22873509 909.78388525 1151.22870489 C911.30738554 1151.22869697 912.83088584 1151.22868677 914.35438613 1151.22867426 C938.65784059 1151.22849774 962.96128923 1151.23420401 987.26474203 1151.24282808 C1011.73089262 1151.2514658 1036.19703514 1151.25367973 1060.66318661 1151.24706676 C1064.03974567 1151.24615439 1067.41630475 1151.24531113 1070.79286385 1151.24450874 C1071.45479383 1151.24434866 1072.11672381 1151.24418857 1072.79871228 1151.24402363 C1083.94290752 1151.24152193 1095.08708778 1151.24695875 1106.23128012 1151.25445829 C1115.90677975 1151.26042198 1125.58226075 1151.25920345 1135.25775951 1151.25198779 C1140.78141199 1151.24807553 1146.30501483 1151.24741794 1151.82866397 1151.25544515 C1156.84416869 1151.2626706 1161.85958197 1151.26085131 1166.87508248 1151.25152128 C1168.6872904 1151.24978637 1170.49950529 1151.25147191 1172.31170614 1151.25682249 C1174.75631671 1151.26356225 1177.2005993 1151.25816921 1179.64519662 1151.24954766 C1180.35554725 1151.25444728 1181.06589788 1151.2593469 1181.79777429 1151.26439499 C1185.43292123 1151.23740362 1186.88282334 1151.07811778 1190 1149 C1191.16037071 1145.51888788 1191.12565063 1142.81792009 1191.12649983 1139.14303356 C1191.12878965 1138.08388689 1191.12878965 1138.08388689 1191.13112573 1137.0033433 C1191.13505217 1134.61462513 1191.13179905 1132.22596928 1191.12863445 1129.83725071 C1191.12997988 1128.10907122 1191.13176307 1126.38089202 1191.13394669 1124.65271339 C1191.13870127 1119.86831269 1191.13716713 1115.0839309 1191.13466892 1110.29952924 C1191.13304288 1105.10788776 1191.13717077 1099.91625045 1191.14057809 1094.72461027 C1191.1457449 1085.61383873 1191.14714708 1076.50307251 1191.14612198 1067.39229965 C1191.14460134 1053.84457366 1191.14874923 1040.29685359 1191.1539966 1026.74912874 C1191.16368448 1001.14954536 1191.16648199 975.5499649 1191.16705366 949.95038015 C1191.16711841 947.12535441 1191.16718635 944.30032867 1191.16725707 941.47530293 C1191.16727408 940.77429949 1191.16729108 940.07329605 1191.1673086 939.35105007 C1191.16771676 923.82856833 1191.16990572 908.306087 1191.17241292 892.78360547 C1191.17344124 886.39542539 1191.17443126 880.00724531 1191.17542917 873.61906523 C1191.17553975 872.91326409 1191.17565034 872.20746295 1191.17576428 871.48027389 C1191.18208983 831.02538574 1191.18621324 790.57049785 1191.18575573 750.11560917 C1191.18573995 748.6011085 1191.18572422 747.08660783 1191.18570852 745.57210717 C1191.18563514 738.73398668 1191.18554697 731.89586619 1191.18545464 725.0577457 C1191.18541351 722.00833982 1191.18537337 718.95893393 1191.18533332 715.90952805 C1191.18531293 714.38324426 1191.18529191 712.85696048 1191.18527026 711.33067669 C1191.18458986 663.05711792 1191.19190938 614.78356648 1191.20581055 566.51000977 C1191.20931142 554.34611799 1191.21278081 542.18222622 1191.21607494 530.01833439 C1191.21627782 529.26940777 1191.21648069 528.52048114 1191.21668971 527.74885977 C1191.22290211 504.67608896 1191.22666977 481.60331875 1191.22793293 458.53054714 C1191.22797288 457.80643778 1191.22801283 457.08232843 1191.22805399 456.33627636 C1191.22890716 440.44238715 1191.2291685 424.54849797 1191.22888362 408.65460874 C1191.22878713 402.96787706 1191.22873509 397.28114538 1191.22870489 391.5944137 C1191.22869697 390.17963922 1191.22868677 388.76486474 1191.22867426 387.35009026 C1191.22849776 364.78311482 1191.23420342 342.21614565 1191.24282808 319.64917202 C1191.25170761 296.29665733 1191.25331001 272.94415366 1191.24651595 249.5916372 C1191.24280763 236.11732697 1191.2446907 222.6430442 1191.25445829 209.16873685 C1191.26042474 200.18214082 1191.25920031 191.19556483 1191.25198779 182.20896974 C1191.24807787 177.07955388 1191.24741143 171.95019146 1191.25544515 166.82077921 C1191.26267866 162.16178795 1191.26084156 157.50289506 1191.25152128 152.84390831 C1191.24978856 151.16187252 1191.25146499 149.47982919 1191.25682249 147.79780104 C1191.26357884 145.52585085 1191.25815502 143.25425177 1191.24954766 140.9823156 C1191.24963588 139.72079161 1191.2497241 138.45926762 1191.249815 137.15951562 C1190.98934811 133.22616351 1190.98934811 133.22616351 1189 130 C1184.51002458 128.73875569 1179.90516122 128.85851701 1175.26914912 128.87350017 C1174.50492752 128.87197362 1173.74070591 128.87044707 1172.95332608 128.86887427 C1170.38458428 128.86496788 1167.8159011 128.86819297 1165.247159 128.87136555 C1163.38215704 128.87001927 1161.51715535 128.86823559 1159.65215418 128.86605331 C1154.50185426 128.86131024 1149.35157195 128.86282919 1144.20127115 128.86533108 C1138.60778811 128.86696003 1133.01430891 128.86282679 1127.42082709 128.85942191 C1117.60919777 128.85425991 1107.79757338 128.85285209 1097.98594284 128.85387802 C1087.45684747 128.8549763 1076.92775546 128.85397041 1066.39866066 128.85030556 C1065.73395443 128.8500759 1065.06924821 128.84984625 1064.38439936 128.84960964 C1061.677219 128.84866802 1058.97003865 128.84771233 1056.2628583 128.84673845 C1028.01244893 128.83659046 999.76204155 128.83353235 971.51163057 128.83294634 C968.47032716 128.83288159 965.42902376 128.83281365 962.38772035 128.83274293 C961.25570269 128.83271742 961.25570269 128.83271742 960.100816 128.8326914 C943.38497679 128.83228312 926.66913796 128.83009382 909.95329895 128.82758708 C903.07271894 128.82655876 896.19213892 128.82556873 889.3115589 128.82457083 C888.5513468 128.82446025 887.79113469 128.82434966 887.00788585 128.82423572 C843.44112113 128.81791117 799.87435665 128.81378667 756.30759144 128.81424427 C754.67693898 128.81426005 753.04628652 128.81427578 751.41563407 128.81429148 C744.05316069 128.81436486 736.69068731 128.81445303 729.32821393 128.81454536 C726.04500706 128.81458649 722.7618002 128.81462663 719.47859333 128.81466668 C717.83528938 128.81468707 716.19198544 128.81470809 714.54868149 128.81472974 C662.56410832 128.81541026 610.57954196 128.80808796 558.5949707 128.79418945 C545.49350645 128.79068858 532.39204219 128.78721919 519.29057789 128.78392506 C518.08060009 128.78362075 518.08060009 128.78362075 516.84617829 128.78331029 C491.99682862 128.77709834 467.1474795 128.77333033 442.29812908 128.77206707 C441.51832472 128.77202712 440.73852036 128.77198717 439.93508557 128.77194601 C422.81921246 128.77109286 405.70333938 128.77083149 388.58746625 128.77111638 C382.46368242 128.77121287 376.33989858 128.77126491 370.21611475 128.77129511 C368.69261446 128.77130303 367.16911416 128.77131323 365.64561387 128.77132574 C341.34215941 128.77150226 317.03871077 128.76579599 292.73525797 128.75717192 C268.26910738 128.7485342 243.80296486 128.74632027 219.33681339 128.75293324 C215.96025433 128.75384561 212.58369525 128.75468887 209.20713615 128.75549126 C208.54520617 128.75565134 207.88327619 128.75581143 207.20128772 128.75597637 C196.05709248 128.75847807 184.91291222 128.75304125 173.76871988 128.74554171 C164.09322025 128.73957802 154.41773925 128.74079655 144.74224049 128.74801221 C139.21858801 128.75192447 133.69498517 128.75258206 128.17133603 128.74455485 C123.15583131 128.7373294 118.14041803 128.73914869 113.12491752 128.74847872 C111.3127096 128.75021363 109.50049471 128.74852809 107.68829386 128.74317751 C105.24368329 128.73643775 102.7994007 128.74183079 100.35480338 128.75045234 C99.64445275 128.74555272 98.93410212 128.7406531 98.20222571 128.73560501 C94.56707877 128.76259638 93.11717666 128.92188222 90 131 Z " fill="#FAFDFF" transform="translate(0,0)"/>
<path d="M0 0 C0.76188697 -0.00152655 1.52377394 -0.0030531 2.3087484 -0.0046259 C4.89365595 -0.00856134 7.47850621 -0.00529566 10.06341416 -0.00213462 C11.93057584 -0.00347967 13.79773724 -0.00526264 15.66489813 -0.00744686 C20.8398429 -0.01220659 26.01477023 -0.01066566 31.1897159 -0.00816908 C36.80296104 -0.00654435 42.41620231 -0.01066983 48.02944624 -0.01407826 C57.88197603 -0.0192472 67.7345009 -0.02064689 77.5870319 -0.01962215 C88.16295903 -0.01852483 98.73888282 -0.01952626 109.31480938 -0.02319461 C110.31535621 -0.02353909 110.31535621 -0.02353909 111.33611612 -0.02389053 C114.05265993 -0.02483213 116.76920374 -0.02578781 119.48574755 -0.02676172 C147.85340438 -0.036917 176.22105925 -0.0399681 204.58871769 -0.04055383 C207.64405022 -0.04061858 210.69938274 -0.04068651 213.75471526 -0.04075724 C214.51286042 -0.04077424 215.27100558 -0.04079125 216.05212483 -0.04080877 C232.83722445 -0.04121687 249.62232369 -0.04340562 266.40742311 -0.04591308 C273.31445338 -0.04694141 280.22148366 -0.04793142 287.12851393 -0.04892933 C287.89163273 -0.04903992 288.65475152 -0.04915051 289.44099513 -0.04926445 C333.18359125 -0.05559035 376.92618712 -0.05971337 420.66878372 -0.0592559 C422.30650235 -0.05924012 423.94422097 -0.05922438 425.58193959 -0.05920869 C432.97645998 -0.0591353 440.37098037 -0.05904713 447.76550076 -0.05895481 C451.06305249 -0.05891368 454.36060422 -0.05887353 457.65815595 -0.05883349 C459.30864171 -0.0588131 460.95912746 -0.05879208 462.60961322 -0.05877043 C514.81194949 -0.05809003 567.01427898 -0.06540952 619.21661335 -0.07931072 C632.37036312 -0.08281156 645.52411289 -0.08628095 658.6778627 -0.08957511 C659.4877255 -0.08977799 660.29758829 -0.08998086 661.13199237 -0.09018988 C686.08056909 -0.09640191 711.02914525 -0.10016987 735.9777227 -0.1014331 C736.76065928 -0.10147305 737.54359585 -0.101513 738.35025777 -0.10155416 C755.53507593 -0.10240731 772.71989405 -0.10266867 789.90471222 -0.10238378 C796.05328106 -0.1022873 802.20184989 -0.10223526 808.35041872 -0.10220506 C809.88010287 -0.10219714 811.40978701 -0.10218694 812.93947115 -0.10217443 C837.34348748 -0.10199789 861.74749801 -0.10770478 886.15151267 -0.11632825 C910.72147739 -0.12496624 935.29143407 -0.12717971 959.86139967 -0.12056693 C963.25239295 -0.11965455 966.64338624 -0.1188113 970.03437954 -0.11800891 C971.03152294 -0.11776878 971.03152294 -0.11776878 972.04881066 -0.1175238 C983.24080231 -0.11502207 994.43278097 -0.12045898 1005.62476997 -0.12795846 C1015.34186513 -0.13392216 1025.05894175 -0.1327036 1034.77603603 -0.12548796 C1040.32351646 -0.12157566 1045.87094745 -0.12091822 1051.41842454 -0.12894531 C1056.45559963 -0.13617071 1061.49268367 -0.13435155 1066.52985457 -0.12502145 C1068.34991645 -0.12328652 1070.16998528 -0.12497215 1071.99004013 -0.13032265 C1074.44522028 -0.13706226 1076.90007386 -0.13166951 1079.35524082 -0.12304783 C1080.06870101 -0.12794745 1080.7821612 -0.13284707 1081.51724139 -0.13789516 C1085.15849688 -0.1109738 1086.61865586 0.04540708 1089.74029499 2.12649983 C1090.9006657 5.60761195 1090.86594563 8.30857975 1090.86679482 11.98346627 C1090.86832137 12.68956405 1090.86984792 13.39566184 1090.87142073 14.12315653 C1090.87534716 16.5118747 1090.87209404 18.90053056 1090.86892945 21.28924912 C1090.87027487 23.01742861 1090.87205807 24.74560781 1090.87424168 26.47378644 C1090.87899626 31.25818714 1090.87746212 36.04256893 1090.87496391 40.82697059 C1090.87333787 46.01861207 1090.87746576 51.21024939 1090.88087308 56.40188956 C1090.88603989 65.5126611 1090.88744208 74.62342732 1090.88641697 83.73420018 C1090.88489634 97.28192617 1090.88904423 110.82964624 1090.8942916 124.37737109 C1090.90397947 149.97695448 1090.90677698 175.57653493 1090.90734866 201.17611968 C1090.9074134 204.00114542 1090.90748134 206.82617116 1090.90755206 209.6511969 C1090.90756907 210.35220034 1090.90758607 211.05320379 1090.90760359 211.77544976 C1090.90801175 227.2979315 1090.91020071 242.82041284 1090.91270791 258.34289436 C1090.91373624 264.73107444 1090.91472626 271.11925452 1090.91572416 277.50743461 C1090.91589004 278.56613632 1090.91589004 278.56613632 1090.91605928 279.64622594 C1090.92238482 320.1011141 1090.92650823 360.55600199 1090.92605072 401.01089066 C1090.92603494 402.52539133 1090.92601921 404.039892 1090.92600351 405.55439267 C1090.92593013 412.39251315 1090.92584196 419.23063364 1090.92574963 426.06875413 C1090.92570851 429.11816002 1090.92566836 432.1675659 1090.92562832 435.21697178 C1090.92560792 436.74325557 1090.9255869 438.26953935 1090.92556526 439.79582314 C1090.92488486 488.06938191 1090.93220438 536.34293335 1090.94610554 584.61649007 C1090.94960641 596.78038184 1090.95307581 608.94427361 1090.95636994 621.10816544 C1090.95667425 622.23155538 1090.95667425 622.23155538 1090.95698471 623.37764006 C1090.9631971 646.45041087 1090.96696476 669.52318108 1090.96822792 692.59595269 C1090.96826787 693.32006205 1090.96830782 694.0441714 1090.96834899 694.79022347 C1090.96920215 710.68411268 1090.96946349 726.57800186 1090.96917861 742.47189109 C1090.96908212 748.15862277 1090.96903008 753.84535445 1090.96899988 759.53208613 C1090.96899197 760.94686061 1090.96898176 762.36163509 1090.96896926 763.77640957 C1090.96879275 786.34338501 1090.97449841 808.91035418 1090.98312307 831.47732782 C1090.99200261 854.8298425 1090.993605 878.18234617 1090.98681094 901.53486263 C1090.98310262 915.00917286 1090.98498569 928.48345563 1090.99475329 941.95776298 C1091.00071973 950.94435902 1090.9994953 959.930935 1090.99228279 968.91753009 C1090.98837286 974.04694595 1090.98770642 979.17630837 1090.99574014 984.30572062 C1091.00297365 988.96471188 1091.00113656 993.62360478 1090.99181627 998.28259153 C1090.99008356 999.96462732 1090.99175998 1001.64667064 1090.99711748 1003.32869879 C1091.00387383 1005.60064898 1090.99845001 1007.87224806 1090.98984265 1010.14418423 C1090.98993087 1011.40570822 1090.9900191 1012.66723222 1090.99010999 1013.96698421 C1090.59990668 1018.90205 1090.59990668 1018.90205 1088.74029499 1021.12649983 C1084.25031957 1022.38774414 1079.64545621 1022.26798282 1075.00944412 1022.25299966 C1073.86311171 1022.25528949 1073.86311171 1022.25528949 1072.69362107 1022.25762557 C1070.12487928 1022.26153195 1067.55619609 1022.25830686 1064.987454 1022.25513428 C1063.12245203 1022.25648056 1061.25745034 1022.25826424 1059.39244917 1022.26044652 C1054.24214925 1022.2651896 1049.09186694 1022.26367064 1043.94156614 1022.26116875 C1038.34808311 1022.2595398 1032.75460391 1022.26367304 1027.16112208 1022.26707792 C1017.34949276 1022.27223992 1007.53786838 1022.27364774 997.72623783 1022.27262181 C987.19714247 1022.27152353 976.66805046 1022.27252943 966.13895565 1022.27619427 C965.14189631 1022.27653875 965.14189631 1022.27653875 964.12469436 1022.27689019 C961.417514 1022.27783181 958.71033364 1022.2787875 956.00315329 1022.27976138 C927.75274393 1022.28990937 899.50233654 1022.29296748 871.25192557 1022.29355349 C868.21062216 1022.29361824 865.16931875 1022.29368618 862.12801534 1022.2937569 C861.3733369 1022.29377391 860.61865847 1022.29379091 859.84111099 1022.29380843 C843.12527178 1022.29421671 826.40943295 1022.29640602 809.69359395 1022.29891275 C802.81301393 1022.29994108 795.93243391 1022.3009311 789.0518539 1022.301929 C788.29164179 1022.30203959 787.53142968 1022.30215018 786.74818085 1022.30226412 C743.18141612 1022.30858866 699.61465164 1022.31271317 656.04788643 1022.31225556 C654.41723397 1022.31223978 652.78658152 1022.31222405 651.15592906 1022.31220835 C643.79345568 1022.31213497 636.4309823 1022.3120468 629.06850892 1022.31195447 C625.78530205 1022.31191334 622.50209519 1022.3118732 619.21888832 1022.31183316 C617.57558438 1022.31181276 615.93228043 1022.31179174 614.28897648 1022.3117701 C562.30440332 1022.31108957 510.31983696 1022.31841187 458.3352657 1022.33231038 C445.23380144 1022.33581125 432.13233719 1022.33928064 419.03087288 1022.34257478 C418.22422101 1022.34277765 417.41756915 1022.34298052 416.58647328 1022.34318954 C391.73712361 1022.34940149 366.88777449 1022.3531695 342.03842407 1022.35443276 C340.86871754 1022.35449269 340.86871754 1022.35449269 339.67538056 1022.35455382 C322.55950745 1022.35540697 305.44363437 1022.35566834 288.32776124 1022.35538345 C282.20397741 1022.35528696 276.08019358 1022.35523492 269.95640975 1022.35520472 C268.43290945 1022.3551968 266.90940916 1022.3551866 265.38590886 1022.3551741 C241.0824544 1022.35499757 216.77900576 1022.36070384 192.47555297 1022.36932791 C168.00940238 1022.37796563 143.54325986 1022.38017956 119.07710838 1022.37356659 C115.70054932 1022.37265422 112.32399024 1022.37181096 108.94743115 1022.37100857 C107.95453617 1022.37076844 107.95453617 1022.37076844 106.94158272 1022.37052346 C95.79738748 1022.36802176 84.65320721 1022.37345858 73.50901488 1022.38095812 C63.83351524 1022.38692181 54.15803424 1022.38570328 44.48253549 1022.37848763 C38.958883 1022.37457537 33.43528017 1022.37391777 27.91163103 1022.38194498 C22.8961263 1022.38917043 17.88071302 1022.38735114 12.86521251 1022.37802111 C11.05300459 1022.37628621 9.2407897 1022.37797174 7.42858885 1022.38332232 C4.98397828 1022.39006208 2.53969569 1022.38466905 0.09509838 1022.37604749 C-0.61525226 1022.38094711 -1.32560289 1022.38584673 -2.0574793 1022.39089482 C-5.69262624 1022.36390345 -7.14252834 1022.20461761 -10.25970501 1020.12649983 C-11.42007571 1016.64538771 -11.38535564 1013.94441992 -11.38620484 1010.2695334 C-11.38773139 1009.56343561 -11.38925793 1008.85733782 -11.39083074 1008.12984314 C-11.39475717 1005.74112497 -11.39150406 1003.35246911 -11.38833946 1000.96375054 C-11.38968489 999.23557105 -11.39146808 997.50739185 -11.39365169 995.77921322 C-11.39840628 990.99481252 -11.39687214 986.21043073 -11.39437392 981.42602908 C-11.39274789 976.23438759 -11.39687577 971.04275028 -11.4002831 965.8511101 C-11.4054499 956.74033856 -11.40685209 947.62957234 -11.40582699 938.51879948 C-11.40430635 924.97107349 -11.40845424 911.42335342 -11.41370161 897.87562858 C-11.42338949 872.27604519 -11.426187 846.67646474 -11.42675867 821.07687999 C-11.42682341 818.25185425 -11.42689135 815.42682851 -11.42696208 812.60180277 C-11.42697908 811.90079932 -11.42699609 811.19979588 -11.42701361 810.4775499 C-11.42742177 794.95506816 -11.42961073 779.43258683 -11.43211792 763.9101053 C-11.43314625 757.52192522 -11.43413627 751.13374514 -11.43513417 744.74556506 C-11.43524476 744.03976392 -11.43535535 743.33396278 -11.43546929 742.60677372 C-11.44179484 702.15188557 -11.44591825 661.69699768 -11.44546074 621.242109 C-11.44544496 619.72760833 -11.44542922 618.21310767 -11.44541353 616.698607 C-11.44534014 609.86048651 -11.44525197 603.02236602 -11.44515964 596.18424553 C-11.44511852 593.13483965 -11.44507837 590.08543376 -11.44503833 587.03602788 C-11.44501794 585.50974409 -11.44499692 583.98346031 -11.44497527 582.45717652 C-11.44429487 534.18361775 -11.45161439 485.91006631 -11.46551555 437.6365096 C-11.46901643 425.47261783 -11.47248582 413.30872605 -11.47577995 401.14483422 C-11.47598282 400.3959076 -11.4761857 399.64698097 -11.47639472 398.8753596 C-11.48260711 375.80258879 -11.48637477 352.72981859 -11.48763794 329.65704697 C-11.48767789 328.93293762 -11.48771784 328.20882826 -11.487759 327.46277619 C-11.48861217 311.56888698 -11.48887351 295.67499781 -11.48858862 279.78110857 C-11.48849213 274.09437689 -11.48844009 268.40764521 -11.48840989 262.72091353 C-11.48840198 261.30613905 -11.48839178 259.89136457 -11.48837927 258.47659009 C-11.48820276 235.90961465 -11.49390842 213.34264549 -11.50253309 190.77567185 C-11.51141262 167.42315716 -11.51301501 144.07065349 -11.50622096 120.71813703 C-11.50251263 107.2438268 -11.50439571 93.76954404 -11.5141633 80.29523669 C-11.52012974 71.30864065 -11.51890532 62.32206466 -11.5116928 53.33546957 C-11.50778287 48.20605371 -11.50711643 43.07669129 -11.51515015 37.94727904 C-11.52238367 33.28828778 -11.52054657 28.62939489 -11.51122629 23.97040814 C-11.50949357 22.28837235 -11.51117 20.60632903 -11.51652749 18.92430088 C-11.52328385 16.65235068 -11.51786002 14.3807516 -11.50925267 12.10881543 C-11.50934089 10.84729144 -11.50942911 9.58576745 -11.50952001 8.28601545 C-11.27200522 5.28206581 -10.94268966 3.59333069 -9.25970501 1.12649983 C-6.28654996 -0.36007769 -3.25975152 -0.01034871 0 0 Z M68.86536586 81.28443235 C67.60016231 84.48049223 67.36447328 86.79149156 67.36309683 90.22517467 C67.35533005 91.46095794 67.34756327 92.69674121 67.33956113 93.96997246 C67.34610248 95.34112213 67.35291833 96.7122705 67.35997826 98.08341759 C67.35654585 99.54617906 67.35179981 101.00893792 67.34585729 102.47169134 C67.33329814 106.50987969 67.33951973 110.54785795 67.34869097 114.58604745 C67.35537773 118.97220288 67.34474629 123.35832117 67.33629513 127.74446881 C67.32389603 135.4378878 67.32272973 143.13124583 67.32884556 150.82467145 C67.33791562 162.2647797 67.32992158 173.70483132 67.31855432 185.14493522 C67.29885784 205.57365087 67.29654564 226.00234118 67.30174952 246.43106406 C67.30630122 264.30762876 67.30571436 282.18418342 67.29990917 300.0607478 C67.29915232 302.45579984 67.29839634 304.85085188 67.29764123 307.24590392 C67.29649608 310.85471625 67.2953462 314.46352858 67.29418199 318.07234091 C67.28347238 351.63635445 67.27875654 385.20036464 67.28665215 418.7643792 C67.28709791 420.66340106 67.28709791 420.66340106 67.28755267 422.60078699 C67.29000178 432.88269505 67.29261328 443.16460308 67.29523681 453.4465111 C67.30534212 493.56568665 67.29698029 533.68482035 67.27374226 573.80399007 C67.24769514 618.84610612 67.23481476 663.88819699 67.24193001 708.93032086 C67.24264611 713.72890311 67.24332049 718.52748537 67.24397045 723.32606763 C67.24414026 724.50765909 67.24431007 725.68925056 67.24448503 726.90664783 C67.24679205 744.7757387 67.23879193 762.64480624 67.22567898 780.51389188 C67.21080133 800.8243572 67.20987944 821.1347677 67.22774989 841.4452318 C67.23734688 852.82222252 67.23580904 864.19908553 67.2185152 875.57606785 C67.20808045 883.16458414 67.21204834 890.75300247 67.22799524 898.34150901 C67.23668571 902.67242249 67.23891007 907.00308448 67.22372592 911.33398569 C67.21006093 915.26847629 67.21456875 919.20249746 67.23401111 923.13695991 C67.23776856 924.55667504 67.23472301 925.9764273 67.22429803 927.39610912 C67.21116984 929.31509308 67.22486591 931.23420536 67.240049 933.15317416 C67.2400963 934.21833901 67.2401436 935.28350386 67.24019233 936.38094643 C67.88527873 939.92245759 68.79787237 941.07234762 71.74029499 943.12649983 C74.78339963 943.72571215 74.78339963 943.72571215 78.2417084 943.62904716 C78.89712645 943.63478065 79.5525445 943.64051415 80.22782371 943.6464214 C82.43811366 943.6608307 84.64730265 943.64660404 86.85758263 943.63265771 C88.45932842 943.63713136 90.06107011 943.64335733 91.66280302 943.65118304 C96.09158001 943.66767592 100.5200156 943.65906572 104.94879277 943.64657141 C109.75656055 943.63736622 114.56426913 943.65123118 119.37202549 943.66221058 C127.80721486 943.67823778 136.24230453 943.67926942 144.67750317 943.67061299 C157.22056748 943.65777531 169.76354116 943.66767914 182.30660001 943.68211254 C204.70415551 943.7070892 227.10166882 943.70892599 249.49923419 943.70083843 C269.09867117 943.69377556 288.69809174 943.69369857 308.2975288 943.70070142 C310.92288775 943.70161273 313.54824669 943.70252349 316.17360563 943.7034337 C320.12938805 943.70481678 324.08517046 943.70620786 328.04095286 943.70761984 C342.77281256 943.71281989 357.50467238 943.7166568 372.23653275 943.71932572 C372.90743682 943.71944727 373.5783409 943.71956881 374.2695754 943.71969404 C395.65380981 943.72345875 417.03803873 943.72086555 438.42227226 943.71408623 C439.11605463 943.71386768 439.809837 943.71364912 440.52464307 943.71342395 C448.26137287 943.71097866 455.99810262 943.70840877 463.73483235 943.70578856 C464.78263849 943.70543375 464.78263849 943.70543375 465.85161243 943.70507177 C468.67656084 943.70411439 471.50150926 943.70315685 474.32645767 943.70219162 C519.0190332 943.6869408 563.71154465 943.69493965 608.40411335 943.72342366 C619.66682923 943.73058795 630.92954513 943.73769043 642.19226128 943.74440545 C643.23242215 943.74502678 643.23242215 943.74502678 644.29359637 943.74566066 C665.6560149 943.758339 687.01842807 943.76485247 708.38085037 943.76481217 C709.05125112 943.76481137 709.72165187 943.76481057 710.4123678 943.76480974 C725.7871895 943.76472178 741.16201048 943.76280235 756.53683186 943.75962365 C761.79684688 943.75858681 767.05686191 943.75759958 772.31687695 943.75664014 C773.61210068 943.75639125 774.90732441 943.75614236 776.24179734 943.75588593 C795.83347331 943.75243917 815.42511693 943.76177741 835.01678616 943.77741116 C857.2841976 943.79513884 879.55153003 943.79537239 901.81893802 943.77205951 C914.2937142 943.75951335 926.76830911 943.7608928 939.24307484 943.78194037 C947.56210687 943.79460136 955.88099835 943.78928132 964.20001495 943.76895557 C968.9490312 943.75786585 973.69768937 943.75489235 978.44668961 943.77363086 C982.75943845 943.79048615 987.07151641 943.78470298 991.38422296 943.76016502 C992.9419632 943.75538711 994.49975661 943.75914815 996.05745046 943.77208404 C998.1605413 943.78835087 1000.26124657 943.77424124 1002.36423075 943.75209498 C1003.53209861 943.75197993 1004.69996647 943.75186487 1005.90322426 943.75174633 C1008.88800744 943.3894616 1008.88800744 943.3894616 1010.61522412 940.96856731 C1011.88042768 937.77250743 1012.1161167 935.46150811 1012.11749315 932.027825 C1012.12525993 930.79204173 1012.13302671 929.55625845 1012.14102885 928.2830272 C1012.13448751 926.91187754 1012.12767166 925.54072916 1012.12061173 924.16958207 C1012.12404413 922.70682061 1012.12879018 921.24406174 1012.13473269 919.78130832 C1012.14729185 915.74311998 1012.14107025 911.70514172 1012.13189902 907.66695221 C1012.12521226 903.28079678 1012.13584369 898.89467849 1012.14429486 894.50853086 C1012.15669396 886.81511187 1012.15786026 879.12175384 1012.15174443 871.42832822 C1012.14267437 859.98821996 1012.1506684 848.54816834 1012.16203567 837.10806444 C1012.18173215 816.6793488 1012.18404434 796.25065848 1012.17884046 775.82193561 C1012.17428877 757.9453709 1012.17487562 740.06881624 1012.18068081 722.19225186 C1012.18143767 719.79719982 1012.18219365 717.40214778 1012.18294876 715.00709574 C1012.18409391 711.39828341 1012.18524378 707.78947108 1012.186408 704.18065875 C1012.1971176 670.61664521 1012.20183344 637.05263503 1012.19393784 603.48862046 C1012.19364066 602.22260589 1012.19334349 600.95659132 1012.19303731 599.65221268 C1012.1905882 589.37030461 1012.18797671 579.08839659 1012.18535318 568.80648856 C1012.17524786 528.68731302 1012.1836097 488.56817931 1012.20684773 448.4490096 C1012.23289485 403.40689354 1012.24577523 358.36480268 1012.23865998 313.3226788 C1012.23794388 308.52409655 1012.23726949 303.7255143 1012.23661953 298.92693204 C1012.23636482 297.15454484 1012.23636482 297.15454484 1012.23610496 295.34635183 C1012.23379794 277.47726097 1012.24179806 259.60819342 1012.25491101 241.73910779 C1012.26978865 221.42864246 1012.27071054 201.11823197 1012.25284009 180.80776786 C1012.24324311 169.43077715 1012.24478094 158.05391413 1012.26207478 146.67693182 C1012.27250954 139.08841552 1012.26854165 131.4999972 1012.25259475 123.91149065 C1012.24390427 119.58057717 1012.24167992 115.24991518 1012.25686406 110.91901397 C1012.27052906 106.98452338 1012.26602123 103.0505022 1012.24657888 99.11603975 C1012.24282143 97.69632463 1012.24586698 96.27657236 1012.25629196 94.85689054 C1012.26942015 92.93790658 1012.25572408 91.0187943 1012.24054098 89.0998255 C1012.24047004 87.50207823 1012.24047004 87.50207823 1012.24039766 85.87205323 C1011.59531125 82.33054207 1010.68271762 81.18065204 1007.74029499 79.12649983 C1004.69719036 78.52728751 1004.69719036 78.52728751 1001.23888159 78.62395251 C1000.58346353 78.61821901 999.92804548 78.61248551 999.25276627 78.60657827 C997.04247633 78.59216896 994.83328734 78.60639562 992.62300736 78.62034196 C991.02126157 78.61586831 989.41951988 78.60964233 987.81778696 78.60181662 C983.38900998 78.58532374 978.96057438 78.59393395 974.53179722 78.60642825 C969.72402943 78.61563344 964.91632086 78.60176848 960.1085645 78.59078908 C951.67337513 78.57476189 943.23828546 78.57373024 934.80308682 78.58238667 C922.26002251 78.59522435 909.71704882 78.58532053 897.17398998 78.57088713 C874.77643448 78.54591046 852.37892117 78.54407368 829.9813558 78.55216124 C810.38191882 78.5592241 790.78249825 78.5593011 771.18306118 78.55229825 C768.55770224 78.55138693 765.9323433 78.55047617 763.30698435 78.54956596 C759.35120194 78.54818289 755.39541953 78.5467918 751.43963713 78.54537983 C736.70777743 78.54017978 721.9759176 78.53634286 707.24405724 78.53367394 C706.57315316 78.5335524 705.90224909 78.53343085 705.21101458 78.53330562 C683.82678018 78.52954091 662.44255126 78.53213411 641.05831772 78.53891343 C640.36453535 78.53913198 639.67075299 78.53935054 638.95594691 78.53957572 C631.21921712 78.542021 623.48248737 78.5445909 615.74575763 78.5472111 C615.04722021 78.54744764 614.34868278 78.54768418 613.62897756 78.54792789 C610.80402914 78.54888527 607.97908073 78.54984282 605.15413232 78.55080804 C560.46155679 78.56605886 515.76904533 78.55806001 471.07647663 78.529576 C459.81376076 78.52241171 448.55104486 78.51530923 437.28832871 78.50859421 C436.59488813 78.50818 435.90144755 78.50776578 435.18699362 78.50733901 C413.82457509 78.49466066 392.46216192 78.48814719 371.09973961 78.48818749 C370.09413849 78.4881887 370.09413849 78.4881887 369.06822219 78.48818992 C353.69340049 78.48827788 338.31857951 78.49019731 322.94375813 78.49337602 C317.68374311 78.49441286 312.42372808 78.49540008 307.16371304 78.49635953 C305.22087744 78.49673286 305.22087744 78.49673286 303.23879264 78.49711373 C283.64711667 78.5005605 264.05547306 78.49122225 244.46380383 78.4755885 C222.19639239 78.45786082 199.92905996 78.45762728 177.66165196 78.48094016 C165.18687578 78.49348632 152.71228088 78.49210687 140.23751515 78.47105929 C131.91848312 78.4583983 123.59959164 78.46371834 115.28057503 78.4840441 C110.53155878 78.49513381 105.78290061 78.49810732 101.03390037 78.4793688 C96.72115153 78.46251351 92.40907358 78.46829668 88.09636703 78.49283465 C86.53862679 78.49761256 84.98083338 78.49385151 83.42313952 78.48091562 C81.32004869 78.4646488 79.21934341 78.47875843 77.11635923 78.50090468 C75.36455745 78.50107726 75.36455745 78.50107726 73.57736572 78.50125333 C70.59258254 78.86353806 70.59258254 78.86353806 68.86536586 81.28443235 Z " fill="#E2ECF8" transform="translate(100.25970500707626,128.87350016832352)"/>
<path d="M0 0 C0.66 0 1.32 0 2 0 C3.35382149 1.48738235 4.63139886 3.04430551 5.875 4.625 C9.46555987 9.11319983 13.12119038 13.52251985 16.875 17.875 C17.89989164 19.06627545 18.92463057 20.2576823 19.94921875 21.44921875 C20.45630371 22.03880371 20.96338867 22.62838867 21.48583984 23.23583984 C27.2119092 29.90732923 32.89179274 36.61508315 38.4375 43.4375 C42.39508188 48.30129025 46.46542446 53.05881231 50.55834961 57.80834961 C53.58945289 61.33298919 56.56985316 64.89039882 59.5 68.5 C63.88712902 73.90076172 68.41223412 79.174677 72.94921875 84.44921875 C79.19427321 91.71031003 85.3963115 99.00553429 91.4375 106.4375 C95.84913055 111.85570579 100.39323642 117.1527085 104.94921875 122.44921875 C111.19427321 129.71031003 117.3963115 137.00553429 123.4375 144.4375 C127.84913055 149.85570579 132.39323642 155.1527085 136.94921875 160.44921875 C143.19427321 167.71031003 149.3963115 175.00553429 155.4375 182.4375 C159.39508188 187.30129025 163.46542446 192.05881231 167.55834961 196.80834961 C170.58945289 200.33298919 173.56985316 203.89039882 176.5 207.5 C180.88945818 212.90362902 185.41682809 218.18038455 189.95703125 223.45703125 C194.21351925 228.40558716 198.42167006 233.3947854 202.63232422 238.38232422 C204.02459417 240.02908979 205.42005473 241.67310067 206.81640625 243.31640625 C211.06740059 248.32234652 215.29564292 253.3404038 219.4375 258.4375 C223.39508188 263.30129025 227.46542446 268.05881231 231.55834961 272.80834961 C234.58945289 276.33298919 237.56985316 279.89039882 240.5 283.5 C244.88712902 288.90076172 249.41223412 294.174677 253.94921875 299.44921875 C260.19427321 306.71031003 266.3963115 314.00553429 272.4375 321.4375 C276.84913055 326.85570579 281.39323642 332.1527085 285.94921875 337.44921875 C292.19427321 344.71031003 298.3963115 352.00553429 304.4375 359.4375 C307.85675389 363.63690451 311.3450149 367.76887452 314.875 371.875 C315.38047363 372.46297363 315.88594727 373.05094727 316.40673828 373.65673828 C317.43014957 374.84686499 318.45358708 376.03696914 319.47705078 377.22705078 C339 399.9547932 339 399.9547932 339 402 C50.58 402 -237.84 402 -535 402 C-535 397.89519623 -532.86695174 395.97236712 -530.375 392.9375 C-529.35738772 391.67112321 -528.34049481 390.40416812 -527.32421875 389.13671875 C-526.78200684 388.46431152 -526.23979492 387.7919043 -525.68115234 387.09912109 C-522.80985719 383.51396342 -520.00136982 379.88027839 -517.1875 376.25 C-515.99364007 374.71342473 -514.79962813 373.17696756 -513.60546875 371.640625 C-512.71093994 370.48916992 -512.71093994 370.48916992 -511.79833984 369.31445312 C-508.86700637 365.54184366 -505.93340802 361.77099645 -503 358 C-501.83332206 356.50000877 -500.6666554 355.00000876 -499.5 353.5 C-478.5 326.5 -478.5 326.5 -476.74902344 324.2487793 C-475.58556688 322.75288338 -474.42215522 321.25695255 -473.25878906 319.76098633 C-470.29338002 315.94790224 -467.32712738 312.13547936 -464.359375 308.32421875 C-459.22405297 301.72798614 -454.0912807 295.13031163 -449 288.5 C-443.30530446 281.08386871 -437.55912408 273.70801416 -431.81445312 266.33056641 C-428.87486662 262.55482734 -425.93752285 258.77734465 -423 255 C-421.83334461 253.49999123 -420.66667793 251.99999124 -419.5 250.5 C-418.9225 249.7575 -418.345 249.015 -417.75 248.25 C-370.5 187.5 -370.5 187.5 -368.74975586 185.24975586 C-367.58381284 183.75063978 -366.41795988 182.25145364 -365.25219727 180.75219727 C-362.32519563 176.98809197 -359.39660948 173.22523992 -356.46484375 169.46484375 C-350.16602045 161.3821519 -343.90377436 153.27392906 -337.69213867 145.12402344 C-333.81126821 140.03985139 -329.87148539 135.00531744 -325.90625 129.98681641 C-321.50304859 124.39951967 -317.23797513 118.71341833 -313 113 C-309.84921991 114.34991366 -308.21336882 115.66274979 -306.2578125 118.46484375 C-305.75644775 119.1724585 -305.25508301 119.88007324 -304.73852539 120.60913086 C-304.20606201 121.37749268 -303.67359863 122.14585449 -303.125 122.9375 C-301.96060078 124.58401645 -300.79520369 126.22982759 -299.62890625 127.875 C-299.02965332 128.72449219 -298.43040039 129.57398438 -297.81298828 130.44921875 C-294.94633534 134.48245197 -292.0060358 138.46020768 -289.0625 142.4375 C-287.88667031 144.02991215 -286.7108893 145.62236025 -285.53515625 147.21484375 C-284.95137207 148.00487793 -284.36758789 148.79491211 -283.76611328 149.60888672 C-280.25687377 154.35999147 -276.75538724 159.11681291 -273.25244141 163.87255859 C-270.32579251 167.84531489 -267.39729226 171.81667846 -264.46484375 175.78515625 C-258.77034768 183.49540315 -253.10178018 191.22206834 -247.5 199 C-242.84912486 205.44902286 -238.19044251 211.8921788 -233.5 218.3125 C-232.92443359 219.10720703 -232.34886719 219.90191406 -231.75585938 220.72070312 C-228.74985946 224.82172064 -225.71665959 228.52603274 -222 232 C-217.03334107 227.88422807 -212.58724357 223.57945482 -208.25 218.8125 C-203.94197497 214.13131628 -199.58922161 209.53302782 -195.0625 205.0625 C-192.1311982 202.16523363 -189.29460389 199.26455861 -186.625 196.125 C-183.43870588 192.38456778 -179.99120031 188.95196232 -176.5 185.5 C-173.05061837 182.08929941 -169.63880077 178.7037849 -166.5 175 C-163.36119859 171.29621434 -159.94937324 167.91070855 -156.5 164.5 C-153.07155172 161.10993882 -149.6773928 157.74806018 -146.5625 154.0625 C-143.25427342 150.15730021 -139.63486259 146.59719074 -136 143 C-130.58505132 137.65534806 -130.58505132 137.65534806 -125.5 132 C-121.64877784 127.44141051 -117.35336869 123.32897829 -113.11547852 119.13500977 C-109.54301767 115.58542182 -106.15395599 111.96842121 -102.90234375 108.12109375 C-99.67498815 104.52262539 -96.19375027 101.1747647 -92.75756836 97.77709961 C-89.89409544 94.93342314 -87.11115316 92.08116073 -84.5 89 C-80.8354347 84.67581294 -76.78479134 80.75917709 -72.7578125 76.77734375 C-69.89425883 73.93358423 -67.1112281 71.08124916 -64.5 68 C-61.36119859 64.29621434 -57.94937324 60.91070855 -54.5 57.5 C-51.07155172 54.10993882 -47.6773928 50.74806018 -44.5625 47.0625 C-41.25427342 43.15730021 -37.63486259 39.59719074 -34 36 C-29.81289066 31.85624109 -25.77513398 27.69408448 -21.97265625 23.19140625 C-18.5282577 19.3650546 -14.82592139 15.78675108 -11.1484375 12.18554688 C-7.62336297 8.71173181 -4.36259708 5.14917819 -1.26391602 1.28735352 C-0.84682373 0.86252686 -0.42973145 0.4377002 0 0 Z " fill="#B7CCEE" transform="translate(738,636)"/>
<path d="M0 0 C14.53867258 11.30061247 25.39213745 27.05236249 28.6015625 45.37109375 C30.74742119 64.91523808 27.55284424 82.9213331 15.5 98.9375 C14.35200177 100.30752866 13.18632949 101.6630255 12 103 C11.50371094 103.58910156 11.00742187 104.17820312 10.49609375 104.78515625 C-1.24404676 117.70225321 -17.87149408 124.10369316 -35 125 C-53.51762038 125.52808548 -70.14418163 119.94880478 -84.25 107.625 C-85.85064207 106.10131187 -87.4347193 104.55999259 -89 103 C-90.0828125 101.95199219 -90.0828125 101.95199219 -91.1875 100.8828125 C-102.64369388 89.03606655 -107.7070058 71.59391024 -107.46826172 55.33911133 C-106.69363495 37.50038963 -98.86601294 20.2936814 -86 8 C-85.09894531 7.06994141 -85.09894531 7.06994141 -84.1796875 6.12109375 C-61.86926522 -15.46496417 -25.22357388 -17.20677908 0 0 Z " fill="#B7CCEE" transform="translate(497,424)"/>
</svg>
