<?xml version="1.0" encoding="UTF-8"?>
<svg id="Capa_2" data-name="Capa 2" xmlns="http://www.w3.org/2000/svg" viewBox="0 0 16.86 15.94">
  <defs>
    <style>
      .cls-1 {
        fill: #6e5fff;
        stroke-width: 0px;
      }
    </style>
  </defs>
  <g id="Capa_1-2" data-name="Capa 1">
    <g>
      <path class="cls-1" d="m0,15.03c-.02.13.04.26.21.29.19.03.39.06.58.09,0,.01,0,.02,0,.03,0,.16.13.29.29.29.54,0,1.07-.01,1.61-.02.01.03.03.06.04.09.07.16.27.16.4.11.09-.04.18-.08.27-.12.34.05.68.1,1.02.15.14.02.34-.04.36-.2,0-.01,0-.03,0-.05,3.73-.04,7.47-.09,11.2-.13.16,0,.3-.13.29-.29-.02-1.42-.03-2.84-.05-4.25,0-.16-.13-.29-.29-.29-.45,0-.9.01-1.35.02.71-.32,1.42-.64,2.13-.96.16-.07.16-.27.11-.4-.58-1.29-1.17-2.58-1.75-3.88-.07-.16-.27-.16-.4-.1-.2.09-.4.18-.61.27.25-.24.49-.48.74-.71.12-.11.11-.3,0-.41-.98-1.02-1.97-2.04-2.95-3.06-.11-.12-.3-.11-.41,0-.45.44-.9.87-1.36,1.31-1.32,1.27-2.64,2.55-3.97,3.82.27-1.87.55-3.74.82-5.61.02-.14-.03-.34-.2-.36C5.34.41,3.93.21,2.53,0c-.14-.02-.34.03-.36.2-.09.62-.18,1.24-.27,1.86C1.27,6.37.64,10.66,0,14.96c0,.02,0,.05,0,.07ZM13.04,5.84c-2.64,2.54-5.28,5.09-7.93,7.63.29-1.98.58-3.95.87-5.93,1.89-1.82,3.77-3.63,5.66-5.45.85.88,1.7,1.76,2.54,2.64-.38.37-.77.74-1.15,1.11ZM4.97,14.44s0-.01,0-.02c.15-.14.3-.29.45-.43,2.46-2.37,4.93-4.75,7.39-7.12.62-.28,1.24-.56,1.86-.84.5,1.11,1.01,2.23,1.51,3.35-.49.22-.98.44-1.48.67-3.25,1.47-6.49,2.93-9.74,4.4Zm-.05.66c2.78-1.26,5.56-2.51,8.34-3.77.8,0,1.59-.02,2.39-.03.01,1.22.03,2.45.04,3.67-.53,0-1.06.01-1.58.02-3.06.04-6.13.07-9.19.11Zm-4.3-.31c.08-.51.15-1.03.23-1.54C1.46,9.04,2.08,4.83,2.7.62c1.21.18,2.42.36,3.63.53-.08.51-.15,1.03-.23,1.54-.62,4.21-1.24,8.42-1.85,12.64-1.21-.18-2.42-.36-3.63-.53Z"/>
      <path class="cls-1" d="m1.67,13.53c0,.54.44.98.98.98s.98-.44.98-.98c0-.54-.44-.98-.98-.98s-.98.44-.98.98Zm.31,0c0-.37.3-.67.67-.67s.67.3.67.67c0,.37-.3.67-.67.67s-.67-.3-.67-.67Z"/>
    </g>
  </g>
</svg>