<?xml version="1.0" encoding="UTF-8"?>
<svg id="Capa_2" data-name="Capa 2" xmlns="http://www.w3.org/2000/svg" viewBox="0 0 18.19 17.19">
  <defs>
    <style>
      .cls-1 {
        fill: #ffa008;
        stroke-width: 0px;
      }
    </style>
  </defs>
  <g id="Capa_1-2" data-name="Capa 1">
    <g>
      <g>
        <path class="cls-1" d="m9.13,8.56c-2.7,0-3.71-2.98-3.71-4.85,0-2.05,1.66-3.71,3.71-3.71s3.71,1.66,3.71,3.71c0,1.88-1.01,4.85-3.71,4.85Zm0-7.55c-1.49,0-2.7,1.21-2.7,2.7,0,1.6.84,3.84,2.7,3.84s2.7-2.25,2.7-3.84c0-1.49-1.21-2.7-2.7-2.7Z"/>
        <path class="cls-1" d="m.51,17.19c-.07,0-.13-.01-.2-.04-.26-.11-.38-.41-.27-.66l1.85-4.33c.59-1.38,1.94-2.27,3.44-2.27h1.78c.22,0,.41.14.48.34l1.53,4.51,1.53-4.51c.07-.21.26-.34.48-.34h1.78c1.5,0,2.85.89,3.44,2.27l1.77,4.15c.11.26,0,.55-.27.66-.26.1-.55,0-.66-.27l-1.77-4.15c-.43-1.01-1.42-1.66-2.51-1.66h-1.42l-1.9,5.58c-.14.41-.82.41-.96,0l-1.9-5.58h-1.42c-1.1,0-2.08.65-2.51,1.66l-1.85,4.33c-.08.19-.27.31-.46.31Z"/>
      </g>
      <path class="cls-1" d="m14.09,14.61h-1.65c-.28,0-.5-.22-.5-.5s.23-.5.5-.5h1.65c.28,0,.5.22.5.5s-.23.5-.5.5Z"/>
    </g>
  </g>
</svg>