<?xml version="1.0" encoding="UTF-8"?>
<svg id="Capa_2" data-name="Capa 2" xmlns="http://www.w3.org/2000/svg" viewBox="0 0 19.47 14.05">
  <defs>
    <style>
      .cls-1 {
        fill: #2fa7ff;
        stroke-width: 0px;
      }
    </style>
  </defs>
  <g id="Capa_1-2" data-name="Capa 1">
    <g>
      <path class="cls-1" d="m5.99,14.05h7.85c1.1,0,1.99-.89,1.99-1.99v-7.85c0-1.09-.89-1.99-1.99-1.99h-7.85c-1.1,0-1.99.89-1.99,1.99v7.85c0,1.1.89,1.99,1.99,1.99Zm-1.24-9.84c0-.68.56-1.24,1.24-1.24h7.85c.68,0,1.24.56,1.24,1.24v7.85c0,.68-.56,1.24-1.24,1.24h-7.85c-.68,0-1.24-.56-1.24-1.24v-7.85Z"/>
      <path class="cls-1" d="m3.17,5.31h13.14c1.78,0,3.17-.98,3.17-2.23v-.86c0-1.25-1.39-2.23-3.17-2.23H3.17C1.39,0,0,.98,0,2.23v.86c0,1.25,1.39,2.23,3.17,2.23Zm15.53-2.07c0,.65-.88,1.37-2.06,1.37H2.77c-1.18,0-2.06-.72-2.06-1.37v-1.16c0-.64.88-1.37,2.06-1.37h13.87c1.18,0,2.06.72,2.06,1.37"/>
      <path class="cls-1" d="m5.54,9.96c.1-.01,1.73-.23,3.7-1.39,1-.6,2.09-1.44,3.11-2.64.13-.16.11-.39-.04-.53-.16-.13-.39-.11-.53.04-.29.34-.59.66-.9.94-1.58,1.49-3.23,2.22-4.29,2.55-.68.22-1.12.28-1.14.28-.2.03-.35.21-.32.42.02.2.21.35.41.32Z"/>
      <path class="cls-1" d="m6.8,11.51c.1-.01,1.73-.23,3.7-1.39,1-.6,2.09-1.44,3.11-2.64.13-.16.11-.39-.04-.53-.16-.13-.39-.11-.53.04-.29.34-.59.66-.9.94-1.58,1.49-3.23,2.22-4.29,2.55-.68.22-1.12.28-1.14.28-.2.03-.35.21-.32.42.02.2.21.35.41.32Z"/>
      <path class="cls-1" d="m8.05,13.06c.1-.01,1.73-.23,3.7-1.39,1-.6,2.09-1.44,3.11-2.64.13-.16.11-.39-.04-.53-.16-.13-.39-.11-.53.04-.29.34-.59.66-.9.94-1.58,1.49-3.23,2.22-4.29,2.55-.68.22-1.12.28-1.14.28-.2.03-.35.21-.32.42.02.2.21.35.41.32Z"/>
    </g>
  </g>
</svg>