<?xml version="1.0" encoding="UTF-8"?>
<svg id="Capa_2" data-name="Capa 2" xmlns="http://www.w3.org/2000/svg" viewBox="0 0 10.32 17.17">
  <defs>
    <style>
      .cls-1 {
        fill: #8ac111;
        stroke-width: 0px;
      }
    </style>
  </defs>
  <g id="Capa_1-2" data-name="Capa 1">
    <g>
      <path class="cls-1" d="m10.17,6.38c.1-.4.15-.81.15-1.22,0-2.85-2.31-5.16-5.16-5.16S0,2.31,0,5.16c0,.41.05.82.15,1.22.14.84.33,1.51.56,2.01.51,1.06,2.64,4.58,3.62,6.18-1.32.17-1.94.74-1.94,1.28,0,.64.87,1.33,2.77,1.33s2.77-.69,2.77-1.33c0-.54-.61-1.11-1.94-1.28.98-1.6,3.11-5.12,3.62-6.18.24-.5.43-1.17.56-2.01Zm-3.04,9.46c-.05.15-.72.53-1.97.53s-1.93-.39-1.97-.52c.04-.13.58-.46,1.61-.52.01.02.02.03.03.04.07.12.2.19.34.19s.27-.07.34-.19c0,0,.01-.02.03-.04,1.01.06,1.56.38,1.61.52Zm2.26-9.64s0,.02,0,.03c-.12.76-.3,1.39-.5,1.81-.51,1.07-2.85,4.91-3.73,6.35-.88-1.44-3.22-5.28-3.73-6.35-.2-.42-.37-1.05-.5-1.81,0-.01,0-.02,0-.03-.08-.34-.13-.69-.13-1.05C.8,2.75,2.75.8,5.16.8s4.36,1.96,4.36,4.36c0,.35-.04.7-.13,1.05Z"/>
      <path class="cls-1" d="m5.16,2.26c-1.53,0-2.77,1.24-2.77,2.77s1.24,2.77,2.77,2.77,2.77-1.24,2.77-2.77-1.24-2.77-2.77-2.77Zm0,4.74c-1.09,0-1.97-.88-1.97-1.97s.88-1.97,1.97-1.97,1.97.88,1.97,1.97-.88,1.97-1.97,1.97Z"/>
    </g>
  </g>
</svg>