<?xml version="1.0" encoding="UTF-8"?>
<svg id="Capa_2" data-name="Capa 2" xmlns="http://www.w3.org/2000/svg" viewBox="0 0 81.75 10.81">
  <defs>
    <style>
      .cls-1, .cls-2 {
        fill: #ed13ab;
      }

      .cls-1, .cls-2, .cls-3 {
        stroke-width: 0px;
      }

      .cls-1, .cls-3 {
        fill-rule: evenodd;
      }

      .cls-3 {
        fill: #fff;
      }
    </style>
  </defs>
  <g id="Capa_1-2" data-name="Capa 1">
    <g>
      <g>
        <path class="cls-3" d="m1.43,10.81c-.79,0-1.43-.64-1.43-1.43s.64-1.43,1.43-1.43,1.43.64,1.43,1.43-.64,1.43-1.43,1.43"/>
        <path class="cls-3" d="m1.43,2.86c-.79,0-1.43-.64-1.43-1.43S.64,0,1.43,0s1.43.64,1.43,1.43-.64,1.43-1.43,1.43"/>
        <path class="cls-3" d="m9.38,10.81c-.79,0-1.43-.64-1.43-1.43s.64-1.43,1.43-1.43,1.43.64,1.43,1.43-.64,1.43-1.43,1.43"/>
        <path class="cls-3" d="m9.38,6.83c-.79,0-1.43-.64-1.43-1.43s.64-1.43,1.43-1.43,1.43.64,1.43,1.43-.64,1.43-1.43,1.43"/>
        <path class="cls-3" d="m1.43,3.97C.64,3.97,0,4.61,0,5.4s.64,1.43,1.43,1.43h0c.7,0,1.3.25,1.79.74h0c.49.5.74,1.1.74,1.8h0c0,.79.64,1.43,1.43,1.43s1.43-.64,1.43-1.43-.64-1.43-1.43-1.43h0c-.7,0-1.3-.25-1.79-.74h0c-.49-.5-.74-1.1-.74-1.8h0c0-.7.25-1.3.74-1.8h0c.49-.5,1.09-.75,1.79-.75h0c.79,0,1.43-.64,1.43-1.43s-.64-1.43-1.43-1.43-1.43.64-1.43,1.43h0c0,.7-.25,1.3-.74,1.79h0c-.49.5-1.09.75-1.79.75h0Z"/>
        <path class="cls-1" d="m5.4,3.97c-.79,0-1.43.64-1.43,1.43s.64,1.43,1.43,1.43,1.43-.64,1.43-1.43h0c0-.7.25-1.3.74-1.79h0c.49-.5,1.09-.75,1.79-.75h0c.79,0,1.43-.64,1.43-1.43s-.64-1.43-1.43-1.43-1.43.64-1.43,1.43h0c0,.7-.25,1.3-.74,1.79h0c-.49.5-1.09.75-1.79.75h0"/>
      </g>
      <g>
        <path class="cls-2" d="m13.98,5.44C13.98,2.47,16.39.06,19.35.06s5.37,2.42,5.37,5.38-2.42,5.34-5.38,5.34-5.36-2.41-5.36-5.34Zm8.63-.01c0-1.8-1.47-3.28-3.28-3.28s-3.26,1.47-3.26,3.28,1.47,3.26,3.26,3.26,3.28-1.47,3.28-3.26Z"/>
        <path class="cls-2" d="m31.42,10.58l-3.28-4.88v4.88h-2.07V.27s3.36,0,3.36,0c1.93,0,3.51,1.48,3.51,3.34,0,1.32-.8,2.48-1.91,2.87l2.93,4.1h-2.53Zm-3.29-5.67h1.33c.7.01,1.33-.56,1.33-1.29s-.63-1.3-1.33-1.3h-1.33v2.59Z"/>
        <path class="cls-2" d="m44.69,5.43C44.69,2.52,47.14.06,50.04.06c1.34.02,2.53.55,3.62,1.59l-1.2,1.63c-.7-.69-1.55-1.11-2.44-1.11-1.66,0-3.24,1.47-3.24,3.28s1.64,3.26,3.23,3.26c.95,0,1.77-.51,2.45-1.18l1.19,1.68c-.91.9-2.02,1.58-3.58,1.58-2.98,0-5.4-2.45-5.4-5.35Z"/>
        <path class="cls-2" d="m54.73,6.77V.27h2.09v6.5c0,1.13.89,1.95,1.89,1.95s1.9-.83,1.9-1.95V.27h2.09v6.5c0,2.34-1.79,4.04-3.98,4.04s-3.98-1.7-3.98-4.04Z"/>
        <path class="cls-2" d="m70.62,8.52v2.06h-6.22V.27h2.07v8.26h4.15Z"/>
        <path class="cls-2" d="m71.01,5.44c0-2.96,2.41-5.38,5.36-5.38s5.37,2.42,5.37,5.38-2.42,5.34-5.38,5.34-5.36-2.41-5.36-5.34Zm8.63-.01c0-1.8-1.47-3.28-3.28-3.28s-3.26,1.47-3.26,3.28,1.47,3.26,3.26,3.26,3.28-1.47,3.28-3.26Z"/>
        <path class="cls-2" d="m40.36,2.56l-.77,1.06h-1.47l1.2-2.09h.55L39.17.01h-.06l-4.93,10.57h2.24l.66-1.44h4.13l.65,1.44h2.25l-3.74-8.02Zm-2.48,4.81l1.26-2.76,1.25,2.76h-2.52Z"/>
      </g>
    </g>
  </g>
</svg>