<?xml version="1.0" encoding="UTF-8"?>
<svg id="Capa_2" data-name="Capa 2" xmlns="http://www.w3.org/2000/svg" viewBox="0 0 121.97 8.8">
  <defs>
    <style>
      .cls-1 {
        fill: #d3b43d;
      }

      .cls-1, .cls-2 {
        stroke-width: 0px;
      }

      .cls-2 {
        fill: #fff;
      }
    </style>
  </defs>
  <g id="Capa_1-2" data-name="Capa 1">
    <g>
      <g>
        <path class="cls-1" d="m65.4,8.63h3.3c.72,0,1.39-.23,1.94-.63h0s0,0,0,0c.07-.05,2.55-2.02,3.37-2.68.17-.13.26-.33.26-.55v-.8c0-.22-.1-.42-.27-.55l-3.35-2.64c-.55-.4-1.23-.64-1.95-.64h-3.3c-1.86,0-3.36,1.53-3.36,3.41v1.66c0,1.89,1.5,3.41,3.36,3.41Zm-2.56-4.94c0-1.59,1.29-2.89,2.89-2.89h2.83c.63,0,1.21.2,1.68.54l3.11,2.41c.07.06.03.17-.06.17h-4.74s-.08-.03-.09-.07c-.23-.89-1.03-1.54-1.99-1.56-1.15-.02-2.11.91-2.12,2.06-.02,1.17.93,2.12,2.09,2.12.98,0,1.8-.67,2.03-1.58.01-.04.05-.07.09-.07h4.74c.09,0,.13.12.06.17,0,0-3.05,2.39-3.12,2.44h0s0,0,0,0c-.47.33-1.04.53-1.67.53h-2.83c-1.59,0-2.89-1.29-2.89-2.89v-1.4Z"/>
        <path class="cls-2" d="m121.04,6.98L115.66.15h-.9v1.54h.94l5.51,6.99h.77V.15h-.94v6.84Zm-13.7.48c-.98-.61-1.54-1.72-1.54-3.07,0-1.91,1.35-3.51,3.24-3.51,1.21,0,1.94.4,2.6.98l.62-.73c-.85-.72-1.74-1.13-3.18-1.13-2.56,0-4.28,2.07-4.28,4.42,0,1.47.6,2.76,1.65,3.55l.89-.51h0ZM101.56.15v8.53h.96V.15h-.96Zm-7.32,2.13c0-.78.71-1.39,1.82-1.39.88,0,1.67.28,2.46.93l.56-.74c-.87-.69-1.75-1.05-3-1.05-1.62,0-2.8.97-2.8,2.34s.9,2.05,2.86,2.47c1.79.38,2.22.83,2.22,1.63,0,.87-.76,1.46-1.9,1.46s-2.04-.4-2.92-1.21l-.6.71c1.02.91,2.13,1.36,3.49,1.36,1.69,0,2.91-.95,2.91-2.42,0-1.32-.88-2.01-2.78-2.43-1.88-.41-2.32-.85-2.32-1.67Zm-8.95,5.52v.88h6.17v-.88h-6.17Zm0-3.86v.88h6.17v-.88h-6.17Zm6.17-3.79h-6.17v.88h6.17V.15Zm17.05,4.84c.18-.32.38-.61.6-.87h3.45v3.4c-.27.24-.58.46-.93.66v-3.19h-3.13Zm-25.39-.59c0-2.41-1.85-4.25-4.53-4.25h-2.96v.89h2.96c2,0,3.53,1.34,3.53,3.39,0,1.9-1.38,3.36-3.53,3.36h-2.96v.89h2.96c2.68,0,4.53-1.86,4.53-4.28Z"/>
      </g>
      <g>
        <path class="cls-2" d="m.25,8.61l-.25-.25V.39L.25.14h3.45c2.29,0,3.71,1.2,3.71,3.14s-1.46,3.13-3.71,3.13h-1.36v1.95l-.25.25H.25Zm3.35-4.2c.96,0,1.45-.38,1.45-1.13s-.49-1.14-1.45-1.14h-1.25v2.27h1.25Z"/>
        <polygon class="cls-2" points="8.47 8.61 8.22 8.36 8.22 .39 8.47 .14 14.49 .14 14.74 .39 14.74 1.87 14.49 2.12 10.55 2.12 10.55 3.35 14 3.35 14.25 3.6 14.25 5.03 14 5.28 10.55 5.28 10.55 6.63 14.64 6.63 14.89 6.88 14.89 8.36 14.64 8.61 8.47 8.61"/>
        <polygon class="cls-2" points="16.11 8.61 15.86 8.36 15.86 .39 16.11 .14 17.96 .14 18.21 .39 18.21 6.6 21.95 6.6 22.2 6.85 22.2 8.36 21.95 8.61 16.11 8.61"/>
        <polygon class="cls-2" points="22.99 8.61 22.74 8.36 22.74 .39 22.99 .14 29.01 .14 29.26 .39 29.26 1.87 29.01 2.12 25.07 2.12 25.07 3.35 28.52 3.35 28.77 3.6 28.77 5.03 28.52 5.28 25.07 5.28 25.07 6.63 29.16 6.63 29.41 6.88 29.41 8.36 29.16 8.61 22.99 8.61"/>
        <path class="cls-2" d="m34.45,8.74c-2.67,0-4.6-1.84-4.6-4.37s1.95-4.37,4.63-4.37c1.48,0,2.7.51,3.53,1.46l-.02.35-1.18,1.09h-.35c-.53-.57-1.13-.83-1.88-.83-1.41,0-2.36.92-2.36,2.3s.96,2.3,2.33,2.3c.45,0,.83-.08,1.18-.25v-2.18l.25-.25h1.69l.25.25v3.23l-.1.2c-.88.67-2.15,1.06-3.37,1.06Z"/>
        <path class="cls-2" d="m44.46,8.61l-.21-.11-1.46-2.11h-1.32v1.97l-.25.25h-1.84l-.25-.25V.39l.25-.25h3.45c2.29,0,3.71,1.2,3.71,3.14,0,1.17-.54,2.09-1.52,2.61l1.62,2.32-.21.39h-1.98Zm-1.73-4.19c.96,0,1.45-.38,1.45-1.14s-.49-1.14-1.45-1.14h-1.25v2.28h1.25Z"/>
        <polygon class="cls-2" points="47.75 8.61 47.5 8.36 47.5 2.9 47.75 2.65 49.6 2.65 49.85 2.9 49.85 8.36 49.6 8.61 47.75 8.61"/>
        <polygon class="cls-1" points="47.75 2.14 47.5 1.89 47.5 .26 47.75 .01 49.6 .01 49.85 .26 49.85 1.89 49.6 2.14 47.75 2.14"/>
        <polygon class="cls-2" points="57.28 8.61 57.09 8.52 53.56 4.22 53.56 8.36 53.31 8.61 51.49 8.61 51.24 8.36 51.24 .39 51.49 .14 53.01 .14 53.21 .23 56.73 4.53 56.73 .39 56.98 .14 58.8 .14 59.05 .39 59.05 8.36 58.8 8.61 57.28 8.61"/>
      </g>
    </g>
  </g>
</svg>