<?xml version="1.0" encoding="UTF-8"?>
<svg id="Capa_2" data-name="Capa 2" xmlns="http://www.w3.org/2000/svg" viewBox="0 0 57.79 34.51">
  <defs>
    <style>
      .cls-1, .cls-2 {
        fill-rule: evenodd;
      }

      .cls-1, .cls-2, .cls-3 {
        stroke-width: 0px;
      }

      .cls-2, .cls-3 {
        fill: #ed13ab;
      }
    </style>
  </defs>
  <g id="Capa_1-2" data-name="Capa 1">
    <g>
      <g>
        <path class="cls-1" d="m20.79,22.06c-1.61,0-2.92-1.31-2.92-2.92s1.31-2.92,2.92-2.92,2.92,1.31,2.92,2.92-1.31,2.92-2.92,2.92"/>
        <path class="cls-1" d="m20.79,5.84c-1.61,0-2.92-1.31-2.92-2.92S19.17,0,20.79,0s2.92,1.31,2.92,2.92-1.31,2.92-2.92,2.92"/>
        <path class="cls-1" d="m37,22.06c-1.61,0-2.92-1.31-2.92-2.92s1.31-2.92,2.92-2.92,2.92,1.31,2.92,2.92-1.31,2.92-2.92,2.92"/>
        <path class="cls-1" d="m37,13.95c-1.61,0-2.92-1.31-2.92-2.92s1.31-2.92,2.92-2.92,2.92,1.31,2.92,2.92-1.31,2.92-2.92,2.92"/>
        <path class="cls-1" d="m20.79,8.11c-1.61,0-2.92,1.31-2.92,2.92s1.31,2.92,2.92,2.92h0c1.42,0,2.65.5,3.65,1.51l.02.02c1.01,1.01,1.51,2.23,1.51,3.65h0c0,1.62,1.31,2.93,2.92,2.93s2.92-1.31,2.92-2.92-1.31-2.92-2.92-2.92h0c-1.42,0-2.65-.5-3.65-1.51l-.02-.02c-1.01-1.01-1.51-2.23-1.51-3.65h0v-.02c0-1.42.5-2.65,1.51-3.65l.02-.02c1.01-1.01,2.23-1.51,3.65-1.51h0c1.61,0,2.92-1.31,2.92-2.92s-1.31-2.92-2.92-2.92-2.92,1.31-2.92,2.92h0c0,1.43-.5,2.66-1.51,3.66l-.02.02c-1.01,1.01-2.23,1.51-3.65,1.51h0Z"/>
        <path class="cls-2" d="m28.89,8.11c-1.61,0-2.92,1.31-2.92,2.92s1.31,2.92,2.92,2.92,2.92-1.31,2.92-2.92h0c0-1.43.5-2.66,1.51-3.66l.02-.02c1.01-1.01,2.23-1.51,3.65-1.51h0c1.61,0,2.92-1.31,2.92-2.92s-1.31-2.92-2.92-2.92-2.92,1.31-2.92,2.92h0c0,1.43-.5,2.66-1.51,3.66l-.02.02c-1.01,1.01-2.23,1.51-3.65,1.51h0"/>
      </g>
      <g>
        <path class="cls-3" d="m0,29.93c0-2.53,2.06-4.59,4.57-4.59s4.58,2.06,4.58,4.59-2.06,4.56-4.58,4.56-4.57-2.05-4.57-4.56Zm7.36-.01c0-1.54-1.26-2.79-2.79-2.79s-2.78,1.26-2.78,2.79,1.25,2.78,2.78,2.78,2.79-1.25,2.79-2.78Z"/>
        <path class="cls-3" d="m14.87,34.32l-2.8-4.16v4.16h-1.77v-8.8s2.87,0,2.87,0c1.64,0,2.99,1.27,2.99,2.85,0,1.13-.68,2.12-1.63,2.45l2.5,3.5h-2.16Zm-2.81-4.84h1.14c.6.01,1.14-.47,1.14-1.1s-.54-1.11-1.14-1.11h-1.14v2.21Z"/>
        <path class="cls-3" d="m26.18,29.92c0-2.48,2.09-4.58,4.57-4.58,1.15.02,2.16.47,3.08,1.36l-1.02,1.39c-.6-.59-1.32-.95-2.08-.95-1.41,0-2.76,1.26-2.76,2.79s1.4,2.78,2.76,2.78c.81,0,1.51-.43,2.09-1l1.02,1.43c-.77.77-1.72,1.35-3.05,1.35-2.54,0-4.6-2.09-4.6-4.56Z"/>
        <path class="cls-3" d="m34.75,31.07v-5.55h1.78v5.54c0,.96.76,1.66,1.61,1.66s1.62-.7,1.62-1.66v-5.54h1.78v5.55c0,1.99-1.52,3.44-3.39,3.44s-3.39-1.45-3.39-3.44Z"/>
        <path class="cls-3" d="m48.3,32.56v1.76h-5.3v-8.8h1.77v7.04h3.54Z"/>
        <path class="cls-3" d="m48.63,29.93c0-2.53,2.06-4.59,4.57-4.59s4.58,2.06,4.58,4.59-2.06,4.56-4.58,4.56-4.57-2.05-4.57-4.56Zm7.36-.01c0-1.54-1.26-2.79-2.79-2.79s-2.78,1.26-2.78,2.79,1.25,2.78,2.78,2.78,2.79-1.25,2.79-2.78Z"/>
        <path class="cls-3" d="m22.5,27.48l-.66.9h-1.25l1.02-1.78h.47l-.6-1.29h-.05l-4.2,9.02h1.91l.56-1.23h3.52l.56,1.23h1.92l-3.19-6.84Zm-2.11,4.1l1.08-2.35,1.07,2.35h-2.14Z"/>
      </g>
    </g>
  </g>
</svg>