<?xml version="1.0" encoding="UTF-8"?>
<svg id="Capa_2" data-name="Capa 2" xmlns="http://www.w3.org/2000/svg" viewBox="0 0 21.46 14.89">
  <defs>
    <style>
      .cls-1 {
        fill: #ffa008;
        stroke-width: 0px;
      }
    </style>
  </defs>
  <g id="Capa_1-2" data-name="Capa 1">
    <path class="cls-1" d="m10.79,2.15l-.55,1.41-.24.62-.55,1.41-.47,1.22-.68,1.75-.22.57c-.47,1.2.13,2.56,1.33,3.03l4.67,1.82H.44c-.59,0-.59.91,0,.91h19.13c.59,0,.59-.91,0-.91h-2.51c.35-.25.63-.6.8-1.03l.22-.57.05.02,1.16-2.97.18-.46.37-.95.24-.62.55-1.41.84-2.15L11.62,0l-.84,2.15Zm6.56,10.6c-.36.92-1.4,1.38-2.32,1.02l-5.43-2.11c-.92-.36-1.38-1.4-1.02-2.32l.22-.57,8.77,3.41-.22.57Zm.47-1.06l-8.82-3.43.48-1.24.47-1.22,8.82,3.43-.96,2.46Zm1.16-2.97l-8.82-3.43.15-.39,8.82,3.43-.15.39Zm.35-.9l-8.82-3.43.24-.62,8.82,3.43-.24.62Zm.44-1.13l-8.82-3.43.15-.39,8.82,3.43-.15.39Zm.99-2.55l-.64,1.65-8.82-3.43.64-1.65,8.82,3.43Z"/>
  </g>
</svg>