<?xml version="1.0" encoding="UTF-8"?>
<svg id="Capa_2" data-name="Capa 2" xmlns="http://www.w3.org/2000/svg" viewBox="0 0 16.35 16.35">
  <defs>
    <style>
      .cls-1 {
        fill: #6e5fff;
        stroke-width: 0px;
      }
    </style>
  </defs>
  <g id="Capa_1-2" data-name="Capa 1">
    <g>
      <g>
        <path class="cls-1" d="m10.97,8.33c-.11,0-.23-.04-.32-.13-.17-.18-.17-.46,0-.64l3.46-3.45-1.87-1.87-3.46,3.46c-.18.17-.46.17-.64,0-.17-.18-.17-.46,0-.64l3.77-3.77c.09-.08.2-.13.32-.13h0c.12,0,.23.05.32.13l2.51,2.51c.08.08.13.2.13.32,0,.12-.05.23-.13.32l-3.77,3.77c-.09.09-.2.13-.32.13Z"/>
        <path class="cls-1" d="m4.27,15.04h0c-.12,0-.23-.05-.32-.13l-2.5-2.51c-.17-.18-.17-.46,0-.64l3.62-3.62c.18-.17.46-.17.64,0,.17.18.17.46,0,.64l-3.3,3.3,1.87,1.87,3.3-3.3c.18-.17.46-.17.64,0,.17.18.17.46,0,.64l-3.62,3.62c-.09.08-.2.13-.32.13Z"/>
        <path class="cls-1" d="m14.74,4.56s-.09,0-.13-.02c-.24-.08-.37-.33-.29-.56l.89-2.83-2.83.89c-.23.08-.49-.06-.56-.29-.08-.24.06-.49.29-.56L15.76.03c.15-.05.33,0,.45.11.12.12.16.29.11.45l-1.15,3.66c-.06.19-.24.31-.43.31Z"/>
        <path class="cls-1" d="m2.65,16.34h0c-.33,0-.63-.13-.86-.36l-1.42-1.42c-.23-.23-.36-.54-.36-.86s.13-.63.36-.86l1.08-1.08c.18-.17.46-.17.64,0,.17.18.17.46,0,.64l-1.08,1.08c-.06.06-.09.14-.09.22s.03.16.09.22l1.42,1.42c.06.06.14.1.22.1h0c.08,0,.16-.03.22-.1l1.08-1.08c.18-.17.46-.17.64,0,.17.18.17.46,0,.64l-1.08,1.08c-.23.23-.54.36-.86.36Z"/>
      </g>
      <g>
        <path class="cls-1" d="m13.15,16.35c-.32,0-.64-.12-.88-.36L.37,4.09c-.49-.49-.49-1.28,0-1.77L2.32.37c.23-.23.55-.37.88-.37h0c.34,0,.65.13.89.37l11.9,11.9c.24.24.37.55.37.89s-.13.65-.37.88l-1.95,1.95c-.25.24-.57.36-.89.36ZM3.2.9h0c-.09,0-.18.04-.25.1l-1.95,1.95c-.14.14-.14.36,0,.5l11.9,11.9c.14.14.36.14.5,0l1.95-1.95h0c.07-.07.1-.15.1-.25s-.04-.19-.1-.25L3.45,1c-.07-.07-.16-.11-.25-.11Z"/>
        <g>
          <path class="cls-1" d="m1.48,5.01c-.11,0-.23-.04-.32-.13-.17-.18-.17-.46,0-.64l.7-.7c.18-.17.46-.17.64,0,.17.18.17.46,0,.64l-.7.7c-.09.09-.2.13-.32.13Z"/>
          <path class="cls-1" d="m3.2,6.73c-.11,0-.23-.04-.32-.13-.17-.18-.17-.46,0-.64l.7-.7c.18-.17.46-.17.64,0,.17.18.17.46,0,.64l-.7.7c-.09.09-.2.13-.32.13Z"/>
          <path class="cls-1" d="m4.92,8.45c-.11,0-.23-.04-.32-.13-.17-.18-.17-.46,0-.64l.7-.7c.18-.17.46-.17.64,0,.17.18.17.46,0,.64l-.7.7c-.09.09-.2.13-.32.13Z"/>
          <path class="cls-1" d="m6.63,10.17c-.11,0-.23-.04-.32-.13-.17-.18-.17-.46,0-.64l.7-.7c.18-.17.46-.17.64,0,.17.18.17.46,0,.64l-.7.7c-.09.09-.2.13-.32.13Z"/>
          <path class="cls-1" d="m8.35,11.88c-.11,0-.23-.04-.32-.13-.17-.18-.17-.46,0-.64l.7-.7c.18-.17.46-.17.64,0,.17.18.17.46,0,.64l-.7.7c-.09.09-.2.13-.32.13Z"/>
          <path class="cls-1" d="m10.07,13.6c-.12,0-.23-.04-.32-.13-.17-.18-.17-.46,0-.64l.7-.69c.17-.18.46-.17.63,0,.17.18.17.46,0,.64l-.7.69c-.09.09-.2.13-.32.13Z"/>
          <path class="cls-1" d="m11.78,15.32c-.11,0-.23-.04-.32-.13-.17-.18-.17-.46,0-.64l.7-.7c.18-.17.46-.17.64,0,.17.18.17.46,0,.64l-.7.7c-.09.09-.2.13-.32.13Z"/>
        </g>
      </g>
    </g>
  </g>
</svg>