<?xml version="1.0" encoding="UTF-8"?>
<svg id="Capa_2" data-name="Capa 2" xmlns="http://www.w3.org/2000/svg" viewBox="0 0 80.27 10.8">
  <defs>
    <style>
      .cls-1, .cls-2 {
        fill-rule: evenodd;
      }

      .cls-1, .cls-2, .cls-3 {
        stroke-width: 0px;
      }

      .cls-2, .cls-3 {
        fill: #ed13ab;
      }
    </style>
  </defs>
  <g id="Capa_1-2" data-name="Capa 1">
    <g>
      <path class="cls-1" d="m1.4,10.7c-.77,0-1.4-.63-1.4-1.4s.63-1.4,1.4-1.4,1.4.63,1.4,1.4-.63,1.4-1.4,1.4"/>
      <path class="cls-1" d="m1.4,2.93c-.77,0-1.4-.63-1.4-1.4S.63.13,1.4.13s1.4.63,1.4,1.4-.63,1.4-1.4,1.4"/>
      <path class="cls-1" d="m9.17,10.7c-.77,0-1.4-.63-1.4-1.4s.63-1.4,1.4-1.4,1.4.63,1.4,1.4-.63,1.4-1.4,1.4"/>
      <path class="cls-1" d="m9.17,6.81c-.77,0-1.4-.63-1.4-1.4s.63-1.4,1.4-1.4,1.4.63,1.4,1.4-.63,1.4-1.4,1.4"/>
      <path class="cls-1" d="m1.4,4.01C.63,4.01,0,4.64,0,5.41s.63,1.4,1.4,1.4h0c.68,0,1.27.24,1.75.72h0c.48.49.72,1.08.72,1.76h0c0,.78.63,1.4,1.4,1.4s1.4-.63,1.4-1.4-.63-1.4-1.4-1.4h0c-.68,0-1.27-.24-1.75-.72h0c-.48-.49-.72-1.08-.72-1.76h0c0-.69.24-1.28.72-1.76h0c.48-.49,1.07-.73,1.75-.73h0c.77,0,1.4-.63,1.4-1.4S6.06.13,5.29.13s-1.4.63-1.4,1.4h0c0,.69-.24,1.27-.72,1.75h0c-.48.49-1.07.73-1.75.73h0Z"/>
      <path class="cls-2" d="m5.29,4.01c-.77,0-1.4.63-1.4,1.4s.63,1.4,1.4,1.4,1.4-.63,1.4-1.4h0c0-.69.24-1.27.72-1.76h0c.48-.49,1.07-.73,1.75-.73h0c.77,0,1.4-.63,1.4-1.4s-.63-1.4-1.4-1.4-1.4.63-1.4,1.4h0c0,.69-.24,1.27-.72,1.75h0c-.48.49-1.07.73-1.75.73h0"/>
    </g>
    <g>
      <path class="cls-3" d="m12.51,5.43C12.51,2.46,14.92.04,17.87.04s5.37,2.42,5.37,5.38-2.42,5.34-5.38,5.34-5.36-2.41-5.36-5.34Zm8.63-.01c0-1.8-1.47-3.28-3.28-3.28s-3.26,1.47-3.26,3.28,1.47,3.26,3.26,3.26,3.28-1.47,3.28-3.26Z"/>
      <path class="cls-3" d="m29.95,10.57l-3.28-4.88v4.88h-2.07V.26s3.36,0,3.36,0c1.93,0,3.51,1.48,3.51,3.34,0,1.32-.8,2.48-1.91,2.87l2.93,4.1h-2.53Zm-3.29-5.67h1.33c.7.01,1.33-.56,1.33-1.29s-.63-1.3-1.33-1.3h-1.33v2.59Z"/>
      <path class="cls-3" d="m43.21,5.42C43.21,2.51,45.67.04,48.57.04c1.34.02,2.53.55,3.62,1.59l-1.2,1.63c-.7-.69-1.55-1.11-2.44-1.11-1.66,0-3.24,1.47-3.24,3.28s1.64,3.26,3.23,3.26c.95,0,1.77-.51,2.45-1.18l1.19,1.68c-.91.9-2.02,1.58-3.58,1.58-2.98,0-5.4-2.45-5.4-5.35Z"/>
      <path class="cls-3" d="m53.26,6.76V.26h2.09v6.5c0,1.13.89,1.95,1.89,1.95s1.9-.83,1.9-1.95V.26h2.09v6.5c0,2.34-1.79,4.04-3.98,4.04s-3.98-1.7-3.98-4.04Z"/>
      <path class="cls-3" d="m69.14,8.51v2.06h-6.22V.26h2.07v8.26h4.15Z"/>
      <path class="cls-3" d="m69.54,5.43c0-2.96,2.41-5.38,5.36-5.38s5.37,2.42,5.37,5.38-2.42,5.34-5.38,5.34-5.36-2.41-5.36-5.34Zm8.63-.01c0-1.8-1.47-3.28-3.28-3.28s-3.26,1.47-3.26,3.28,1.47,3.26,3.26,3.26,3.28-1.47,3.28-3.26Z"/>
      <path class="cls-3" d="m38.89,2.55l-.77,1.06h-1.47l1.2-2.09h.55l-.71-1.52h-.06l-4.93,10.57h2.24l.66-1.44h4.13l.65,1.44h2.25l-3.74-8.02Zm-2.48,4.81l1.26-2.76,1.25,2.76h-2.52Z"/>
    </g>
  </g>
</svg>