<?xml version="1.0" encoding="UTF-8"?>
<svg id="Capa_2" data-name="Capa 2" xmlns="http://www.w3.org/2000/svg" viewBox="0 0 86.98 23.86">
  <defs>
    <style>
      .cls-1 {
        fill: #dab405;
      }

      .cls-1, .cls-2 {
        stroke-width: 0px;
      }

      .cls-2 {
        fill: #fff;
      }
    </style>
  </defs>
  <g id="Capa_1-2" data-name="Capa 1">
    <g>
      <g>
        <path class="cls-1" d="m15.54,23.68h3.37c.74,0,1.42-.24,1.98-.64h0s0,0,0,0c.07-.05,2.6-2.07,3.45-2.74.17-.14.27-.34.27-.56v-.82c0-.22-.1-.43-.27-.56l-3.43-2.7c-.56-.41-1.25-.65-2-.65h-3.37c-1.9,0-3.44,1.56-3.44,3.49v1.69c0,1.93,1.54,3.49,3.44,3.49Zm-2.62-5.05c0-1.63,1.32-2.95,2.95-2.95h2.9c.64,0,1.23.2,1.72.55l3.18,2.46c.07.06.03.18-.06.18h-4.85s-.08-.03-.09-.07c-.24-.91-1.06-1.58-2.04-1.59-1.18-.02-2.15.93-2.17,2.11-.02,1.19.95,2.17,2.14,2.17,1,0,1.84-.69,2.07-1.61.01-.04.05-.07.09-.07h4.84c.09,0,.14.12.06.18,0,0-3.11,2.44-3.19,2.49h0s0,0,0,0c-.48.34-1.07.54-1.7.54h-2.9c-1.63,0-2.95-1.32-2.95-2.95v-1.43Z"/>
        <path class="cls-2" d="m72.42,22l-5.49-6.99h-.92v1.57h.96l5.63,7.15h.78v-8.72h-.96v6.99Zm-14,.49c-1-.62-1.57-1.76-1.57-3.13,0-1.96,1.38-3.59,3.31-3.59,1.23,0,1.98.41,2.65,1l.64-.75c-.87-.74-1.78-1.16-3.25-1.16-2.62,0-4.37,2.12-4.37,4.52,0,1.5.61,2.82,1.69,3.63l.91-.52h0Zm-5.91-7.48v8.72h.98v-8.72h-.98Zm-7.48,2.18c0-.8.72-1.42,1.86-1.42.9,0,1.71.29,2.52.95l.57-.76c-.88-.71-1.79-1.07-3.06-1.07-1.66,0-2.87,1-2.87,2.39s.92,2.1,2.93,2.53c1.83.39,2.27.85,2.27,1.67,0,.88-.77,1.49-1.94,1.49s-2.08-.41-2.99-1.23l-.61.72c1.05.93,2.18,1.4,3.56,1.4,1.73,0,2.98-.97,2.98-2.48,0-1.35-.9-2.06-2.84-2.48-1.92-.41-2.37-.87-2.37-1.71Zm-9.15,5.64v.9h6.3v-.9h-6.3Zm0-3.95v.9h6.3v-.9h-6.3Zm6.3-3.87h-6.3v.9h6.3v-.9Zm17.43,4.95c.18-.33.39-.63.62-.88h3.53v3.48c-.27.24-.59.47-.95.67v-3.26h-3.2Zm-25.96-.6c0-2.47-1.89-4.35-4.63-4.35h-3.03v.91h3.03c2.04,0,3.61,1.37,3.61,3.46,0,1.94-1.41,3.44-3.61,3.44h-3.03v.91h3.03c2.74,0,4.63-1.91,4.63-4.37Z"/>
      </g>
      <g>
        <path class="cls-2" d="m.37,12.68l-.37-.37V.57L.37.2h5.08c3.37,0,5.47,1.77,5.47,4.63s-2.15,4.61-5.47,4.61h-2v2.87l-.37.37H.37Zm4.93-6.19c1.41,0,2.13-.56,2.13-1.66s-.72-1.68-2.13-1.68h-1.85v3.34h1.85Z"/>
        <polygon class="cls-2" points="12.48 12.68 12.11 12.31 12.11 .57 12.48 .2 21.35 .2 21.72 .57 21.72 2.75 21.35 3.12 15.55 3.12 15.55 4.93 20.63 4.93 21 5.3 21 7.41 20.63 7.78 15.55 7.78 15.55 9.76 21.57 9.76 21.94 10.13 21.94 12.31 21.57 12.68 12.48 12.68"/>
        <polygon class="cls-2" points="23.73 12.68 23.36 12.31 23.36 .57 23.73 .2 26.45 .2 26.82 .57 26.82 9.73 32.33 9.73 32.7 10.1 32.7 12.31 32.33 12.68 23.73 12.68"/>
        <polygon class="cls-2" points="33.86 12.68 33.49 12.31 33.49 .57 33.86 .2 42.73 .2 43.1 .57 43.1 2.75 42.73 3.12 36.93 3.12 36.93 4.93 42.01 4.93 42.38 5.3 42.38 7.41 42.01 7.78 36.93 7.78 36.93 9.76 42.95 9.76 43.32 10.13 43.32 12.31 42.95 12.68 33.86 12.68"/>
        <path class="cls-2" d="m50.75,12.88c-3.93,0-6.77-2.71-6.77-6.44s2.87-6.44,6.83-6.44c2.18,0,3.98.75,5.19,2.16l-.03.51-1.74,1.61-.52-.02c-.78-.83-1.66-1.21-2.77-1.21-2.08,0-3.47,1.36-3.47,3.39s1.41,3.39,3.44,3.39c.66,0,1.22-.12,1.74-.36v-3.21l.37-.37h2.48l.37.37v4.76l-.15.29c-1.3.98-3.16,1.57-4.97,1.57Z"/>
        <path class="cls-2" d="m65.49,12.68l-.3-.16-2.15-3.11h-1.94v2.9l-.37.37h-2.72l-.37-.37V.57l.37-.37h5.08c3.37,0,5.47,1.77,5.47,4.63,0,1.72-.79,3.08-2.23,3.85l2.39,3.42-.3.58h-2.92Zm-2.55-6.17c1.41,0,2.13-.56,2.13-1.68s-.72-1.68-2.13-1.68h-1.85v3.36h1.85Z"/>
        <polygon class="cls-2" points="70.34 12.68 69.97 12.31 69.97 4.27 70.34 3.9 73.06 3.9 73.42 4.27 73.42 12.31 73.06 12.68 70.34 12.68"/>
        <polygon class="cls-1" points="70.34 3.15 69.97 2.78 69.97 .39 70.34 .02 73.06 .02 73.42 .39 73.42 2.78 73.06 3.15 70.34 3.15"/>
        <polygon class="cls-2" points="84.38 12.68 84.09 12.54 78.89 6.21 78.89 12.31 78.52 12.68 75.84 12.68 75.47 12.31 75.47 .57 75.84 .2 78.09 .2 78.37 .34 83.56 6.67 83.56 .57 83.92 .2 86.61 .2 86.98 .57 86.98 12.31 86.61 12.68 84.38 12.68"/>
      </g>
    </g>
  </g>
</svg>