<?xml version="1.0" encoding="UTF-8"?>
<svg id="Capa_2" data-name="Capa 2" xmlns="http://www.w3.org/2000/svg" viewBox="0 0 119.65 8.63">
  <defs>
    <style>
      .cls-1, .cls-2 {
        stroke-width: 0px;
      }

      .cls-2 {
        fill: #dab405;
      }
    </style>
  </defs>
  <g id="Capa_1-2" data-name="Capa 1">
    <g>
      <g>
        <path class="cls-2" d="m64.16,8.46h3.24c.71,0,1.36-.23,1.9-.61h0s0,0,0,0c.07-.05,2.5-1.98,3.31-2.63.16-.13.26-.33.26-.54v-.79c0-.21-.1-.41-.26-.54l-3.29-2.59c-.54-.39-1.2-.62-1.92-.62h-3.24c-1.82,0-3.3,1.5-3.3,3.35v1.62c0,1.85,1.48,3.35,3.3,3.35Zm-2.51-4.85c0-1.56,1.27-2.83,2.83-2.83h2.78c.61,0,1.18.2,1.65.53l3.05,2.36c.07.06.03.17-.06.17h-4.65s-.08-.03-.09-.07c-.23-.87-1.01-1.51-1.95-1.53-1.13-.02-2.07.89-2.08,2.02-.02,1.15.91,2.08,2.05,2.08.96,0,1.76-.66,1.99-1.55.01-.04.05-.07.09-.07h4.65c.09,0,.13.11.06.17,0,0-2.99,2.34-3.06,2.39h0s0,0,0,0c-.46.33-1.02.52-1.63.52h-2.78c-1.56,0-2.83-1.27-2.83-2.83v-1.37Z"/>
        <path class="cls-1" d="m118.73,6.85L113.46.14h-.88v1.51h.92l5.4,6.86h.75V.14h-.92v6.71Zm-13.44.47c-.96-.59-1.51-1.69-1.51-3.01,0-1.88,1.33-3.44,3.18-3.44,1.18,0,1.9.39,2.55.96l.61-.72c-.84-.71-1.71-1.11-3.12-1.11-2.51,0-4.2,2.03-4.2,4.34,0,1.44.58,2.7,1.62,3.49l.87-.5h0ZM99.62.14v8.37h.94V.14h-.94Zm-7.18,2.09c0-.76.69-1.36,1.78-1.36.86,0,1.64.28,2.41.91l.55-.73c-.85-.68-1.72-1.03-2.94-1.03-1.59,0-2.75.96-2.75,2.3s.88,2.01,2.81,2.43c1.76.38,2.18.81,2.18,1.6,0,.85-.74,1.43-1.86,1.43s-2-.39-2.87-1.18l-.59.69c1,.9,2.09,1.34,3.42,1.34,1.66,0,2.86-.93,2.86-2.38,0-1.29-.86-1.98-2.72-2.38-1.84-.4-2.27-.84-2.27-1.64Zm-8.78,5.42v.86h6.05v-.86h-6.05Zm0-3.79v.86h6.05v-.86h-6.05Zm6.05-3.72h-6.05v.86h6.05V.14Zm16.73,4.75c.18-.32.38-.6.59-.85h3.39v3.34c-.26.23-.57.45-.91.64v-3.13h-3.07Zm-24.91-.57c0-2.37-1.82-4.17-4.45-4.17h-2.9v.87h2.9c1.96,0,3.47,1.31,3.47,3.32,0,1.86-1.35,3.3-3.47,3.3h-2.9v.87h2.9c2.63,0,4.45-1.83,4.45-4.2Z"/>
      </g>
      <g>
        <path class="cls-1" d="m.25,8.44l-.25-.25V.38l.25-.25h3.38c2.25,0,3.64,1.18,3.64,3.08s-1.43,3.07-3.64,3.07h-1.33v1.91l-.25.25H.25Zm3.28-4.12c.94,0,1.42-.37,1.42-1.11s-.48-1.12-1.42-1.12h-1.23v2.22h1.23Z"/>
        <polygon class="cls-1" points="8.31 8.44 8.06 8.2 8.06 .38 8.31 .13 14.22 .13 14.46 .38 14.46 1.83 14.22 2.08 10.35 2.08 10.35 3.28 13.74 3.28 13.98 3.53 13.98 4.94 13.74 5.18 10.35 5.18 10.35 6.5 14.36 6.5 14.61 6.75 14.61 8.2 14.36 8.44 8.31 8.44"/>
        <polygon class="cls-1" points="15.8 8.44 15.56 8.2 15.56 .38 15.8 .13 17.61 .13 17.86 .38 17.86 6.48 21.53 6.48 21.78 6.72 21.78 8.2 21.53 8.44 15.8 8.44"/>
        <polygon class="cls-1" points="22.55 8.44 22.31 8.2 22.31 .38 22.55 .13 28.46 .13 28.7 .38 28.7 1.83 28.46 2.08 24.59 2.08 24.59 3.28 27.98 3.28 28.22 3.53 28.22 4.94 27.98 5.18 24.59 5.18 24.59 6.5 28.6 6.5 28.85 6.75 28.85 8.2 28.6 8.44 22.55 8.44"/>
        <path class="cls-1" d="m33.8,8.58c-2.61,0-4.51-1.8-4.51-4.29s1.91-4.29,4.55-4.29c1.45,0,2.65.5,3.46,1.44l-.02.34-1.16,1.07h-.34c-.52-.56-1.1-.82-1.84-.82-1.38,0-2.31.91-2.31,2.26s.94,2.26,2.29,2.26c.44,0,.81-.08,1.16-.24v-2.14l.25-.25h1.65l.25.25v3.17l-.1.2c-.87.65-2.1,1.04-3.31,1.04Z"/>
        <path class="cls-1" d="m43.62,8.44l-.2-.11-1.43-2.07h-1.29v1.93l-.25.25h-1.81l-.25-.25V.38l.25-.25h3.38c2.25,0,3.64,1.18,3.64,3.08,0,1.15-.53,2.05-1.49,2.56l1.59,2.28-.2.39h-1.94Zm-1.7-4.11c.94,0,1.42-.38,1.42-1.12s-.48-1.12-1.42-1.12h-1.23v2.23h1.23Z"/>
        <polygon class="cls-1" points="46.84 8.44 46.6 8.2 46.6 2.84 46.84 2.6 48.65 2.6 48.9 2.84 48.9 8.2 48.65 8.44 46.84 8.44"/>
        <polygon class="cls-2" points="46.84 2.1 46.6 1.85 46.6 .26 46.84 .01 48.65 .01 48.9 .26 48.9 1.85 48.65 2.1 46.84 2.1"/>
        <polygon class="cls-1" points="56.19 8.44 56 8.35 52.54 4.14 52.54 8.2 52.29 8.44 50.51 8.44 50.26 8.2 50.26 .38 50.51 .13 52 .13 52.19 .22 55.65 4.44 55.65 .38 55.89 .13 57.68 .13 57.92 .38 57.92 8.2 57.68 8.44 56.19 8.44"/>
      </g>
    </g>
  </g>
</svg>