<?xml version="1.0" encoding="UTF-8"?>
<svg id="Capa_2" data-name="Capa 2" xmlns="http://www.w3.org/2000/svg" viewBox="0 0 13.7 14.44">
  <defs>
    <style>
      .cls-1 {
        fill: #8ac111;
        stroke-width: 0px;
      }
    </style>
  </defs>
  <g id="Capa_1-2" data-name="Capa 1">
    <path class="cls-1" d="m7.09,0C4.84,0,1.18.3.56,1.39h-.09v.11C-.26,1.81.03,3.96.22,4.44c.06.15.14.28.25.4v7.89c0,1.36,4.16,1.72,6.62,1.72s6.62-.36,6.62-1.72V1.39h-.09c-.62-1.09-4.28-1.39-6.53-1.39Zm0,.66c3.71,0,5.88.7,5.96,1.06-.07.32-1.73.89-4.63,1.03-2.5.06-5.03-.21-7.23-1.12.37-.38,2.48-.97,5.9-.97Zm0,13.12c-3.72,0-5.89-.7-5.96-1.06v-7.44c.35.14.74.19,1.09.16.88-.09,1.36-.84,1.91-1.45.4,1.4,1.09,3.37,2.81,2.99.46-.1.85-.39,1.26-.59.95-.46.84.25.87.94.04.84.15,1.73.59,2.47.69,1.13,2.29,1.2,2.91-.05.28-.57.4-1.22.48-1.87v4.84c-.07.36-2.24,1.06-5.96,1.06Zm5.31-5.37c-.13.63-.23,1.41-.96,1.66-.56.19-1.08-.18-1.37-.67-.4-.68-.43-1.59-.46-2.36-.02-.77,0-1.59-1-1.42-1,.18-1.8,1.48-2.9.5-.7-.62-.94-1.89-1.18-2.74-.06-.21-.31-.26-.46-.12-.81.72-2.07,2.65-3.19,1.12-.14-.19-.42-2.44-.21-2.39h0c3.74,1.64,8.39,1.46,12.39.85-.2,1.85-.31,3.74-.68,5.56Z"/>
  </g>
</svg>