<?xml version="1.0" encoding="UTF-8"?>
<svg id="Capa_2" data-name="Capa 2" xmlns="http://www.w3.org/2000/svg" viewBox="0 0 13.8 15.85">
  <defs>
    <style>
      .cls-1 {
        fill: #2fa7ff;
        stroke-width: 0px;
      }
    </style>
  </defs>
  <g id="Capa_1-2" data-name="Capa 1">
    <g>
      <path class="cls-1" d="m1.88,11.02c-.25,0-.45-.2-.45-.45v-5.29c0-.25.2-.45.45-.45s.45.2.45.45v5.29c0,.25-.2.45-.45.45Z"/>
      <path class="cls-1" d="m12.22,15.85H3c-.87,0-1.57-.7-1.57-1.57v-2.24c0-.25.2-.45.45-.45s.45.2.45.45v2.24c0,.37.3.67.68.67h9.22c.37,0,.68-.3.68-.67V1.57c0-.37-.3-.67-.68-.67H3c-.37,0-.68.3-.68.67v2.24c0,.25-.2.45-.45.45s-.45-.2-.45-.45V1.57c0-.87.7-1.57,1.57-1.57h9.22c.87,0,1.57.7,1.57,1.57v12.71c0,.87-.7,1.57-1.57,1.57Z"/>
      <g>
        <path class="cls-1" d="m2.57,5.73h-1.39c-.65,0-1.18-.53-1.18-1.18s.53-1.18,1.18-1.18h.69c.25,0,.45.2.45.45s-.2.45-.45.45h-.69c-.16,0-.29.13-.29.28s.13.29.29.29h1.39c.16,0,.29-.13.29-.29,0-.25.2-.45.45-.45s.45.2.45.45c0,.65-.53,1.18-1.18,1.18Z"/>
        <path class="cls-1" d="m2.57,12.49h-1.39c-.65,0-1.18-.53-1.18-1.18s.53-1.18,1.18-1.18h.69c.25,0,.45.2.45.45s-.2.45-.45.45h-.69c-.16,0-.29.13-.29.29s.13.29.29.29h1.39c.16,0,.29-.13.29-.29,0-.25.2-.45.45-.45s.45.2.45.45c0,.65-.53,1.18-1.18,1.18Z"/>
      </g>
      <path class="cls-1" d="m5.01,13.32c-.25,0-.45-.2-.45-.45V2.97c0-.25.2-.45.45-.45s.45.2.45.45v9.9c0,.25-.2.45-.45.45Z"/>
      <path class="cls-1" d="m10.88,10.22h-3.78c-.25,0-.45-.2-.45-.45s.2-.45.45-.45h3.78c.25,0,.45.2.45.45s-.2.45-.45.45Z"/>
      <path class="cls-1" d="m9.14,12.19h-2.05c-.25,0-.45-.2-.45-.45s.2-.45.45-.45h2.05c.25,0,.45.2.45.45s-.2.45-.45.45Z"/>
    </g>
  </g>
</svg>