<?xml version="1.0" encoding="UTF-8"?>
<svg id="Capa_2" data-name="Capa 2" xmlns="http://www.w3.org/2000/svg" viewBox="0 0 26.18 21.93">
  <defs>
    <style>
      .cls-1 {
        fill: #ff5f5f;
        stroke-width: 0px;
      }
    </style>
  </defs>
  <g id="Capa_1-2" data-name="Capa 1">
    <g>
      <path class="cls-1" d="m25.73,13.48l-.95-.18c-.05-.52-.15-1.03-.32-1.53l.8-.55c.26-.17.32-.52.15-.78l-1.41-2.08c-.08-.12-.21-.21-.36-.23-.14-.03-.3,0-.42.09l-.8.54c-.4-.34-.84-.63-1.31-.86l.18-.95c.06-.3-.14-.6-.44-.65l-2.47-.47c-.15-.03-.3,0-.42.09-.12.08-.21.21-.23.36l-.18.95c-.52.05-1.03.15-1.53.32l-.55-.8c-.08-.12-.21-.21-.36-.23-.15-.03-.3,0-.42.09l-2.08,1.41c-.12.08-.21.21-.23.36-.03.15,0,.3.09.42l.55.8c-.34.4-.63.84-.86,1.31l-.95-.18c-.15-.03-.3,0-.42.09-.12.08-.21.21-.23.36l-.47,2.47c-.06.3.14.6.44.65l.95.18c.04.52.15,1.03.32,1.53l-.8.55c-.12.08-.21.21-.23.36-.03.15,0,.3.09.42l1.41,2.08c.08.12.21.21.36.23.15.03.3,0,.42-.09l.8-.55c.4.34.84.63,1.31.86l-.18.95c-.06.3.14.6.44.65l2.47.47s.07.01.11.01c.26,0,.5-.19.55-.45l.18-.95c.52-.05,1.03-.15,1.53-.32l.55.8c.08.12.21.21.36.23.15.03.3,0,.42-.09l2.08-1.41c.25-.17.32-.52.15-.78l-.55-.8c.34-.4.63-.84.86-1.31l.95.18c.3.06.6-.14.65-.44l.47-2.47c.03-.15,0-.3-.09-.42-.08-.12-.21-.21-.36-.23Zm-1.02,2.36l-.83-.16c-.26-.05-.52.09-.62.33-.27.64-.64,1.22-1.13,1.72-.18.19-.21.48-.06.7l.48.7-1.15.78-.48-.7c-.15-.22-.43-.3-.67-.2-.64.27-1.32.41-2.01.42-.26,0-.49.19-.54.45l-.16.83-1.37-.26.16-.83c.05-.26-.09-.52-.33-.62-.64-.26-1.21-.64-1.72-1.13-.19-.18-.48-.21-.7-.06l-.7.48-.78-1.15.7-.48c.22-.15.3-.43.2-.67-.27-.64-.41-1.32-.42-2.01,0-.26-.19-.49-.45-.54l-.83-.16.26-1.37.83.16c.26.05.52-.09.62-.33.27-.64.65-1.21,1.13-1.71.18-.19.21-.48.06-.7l-.48-.7,1.15-.78.48.7c.15.22.43.3.67.2.64-.27,1.32-.41,2.01-.42.26,0,.49-.19.54-.45l.16-.83,1.37.26-.16.83c-.05.26.09.52.33.62.64.27,1.21.64,1.71,1.13.19.18.48.21.7.06l.7-.48.78,1.15-.7.48c-.22.15-.3.43-.2.67.27.64.41,1.32.42,2.01,0,.26.19.49.45.54l.83.16-.26,1.37Z"/>
      <path class="cls-1" d="m18.88,9.93c-1.05-.2-2.12.02-3.01.62-.89.6-1.49,1.51-1.69,2.57-.2,1.05.02,2.12.62,3.01.6.89,1.51,1.48,2.57,1.68h0c.25.05.51.07.75.07,1.89,0,3.57-1.34,3.94-3.26.41-2.17-1.02-4.28-3.19-4.69Zm2.09,4.48c-.14.76-.58,1.42-1.22,1.85-.64.43-1.41.59-2.17.45h0c-.76-.14-1.42-.58-1.85-1.22-.43-.64-.59-1.41-.45-2.17.14-.76.58-1.42,1.22-1.85.49-.33,1.05-.5,1.62-.5.18,0,.37.02.55.05,1.57.3,2.6,1.82,2.3,3.39Z"/>
      <path class="cls-1" d="m5.39,11.03l.1.72c.02.11.07.21.16.28.07.06.16.08.25.08.02,0,.04,0,.06,0l1.87-.27c.23-.03.39-.25.36-.47l-.1-.72c.36-.16.7-.36,1.01-.6l.58.44c.19.14.45.1.59-.09l1.13-1.51c.14-.19.1-.45-.08-.59l-.58-.44c.14-.37.24-.75.29-1.14l.72-.1c.11-.02.21-.07.28-.16.07-.09.1-.2.08-.31l-.27-1.87c-.03-.23-.24-.39-.47-.36l-.72.1c-.16-.36-.36-.7-.6-1.01l.44-.58c.07-.09.1-.2.08-.31-.02-.11-.07-.21-.16-.28l-1.51-1.13c-.09-.07-.2-.1-.31-.08-.11.02-.21.07-.28.16l-.44.58c-.37-.14-.75-.24-1.14-.29l-.1-.72c-.03-.23-.24-.39-.48-.36l-1.87.27c-.11.02-.21.08-.28.16-.07.09-.1.2-.08.31l.1.72c-.36.16-.7.36-1.01.6l-.58-.44c-.09-.07-.2-.09-.31-.08-.11.02-.21.08-.28.16l-1.13,1.51c-.07.09-.1.2-.08.31.02.11.07.21.16.28l.58.44c-.14.37-.24.75-.29,1.14l-.72.1c-.11.02-.21.08-.28.16-.07.09-.1.2-.08.31l.27,1.87c.03.23.25.39.48.36l.72-.1c.16.36.36.7.6,1.01l-.44.58c-.07.09-.1.2-.08.31.02.11.07.21.16.28l1.51,1.13c.19.14.45.1.59-.08l.44-.58c.37.14.75.24,1.14.29Zm-1.61-1.06l-.38.51-.84-.63.38-.51c.12-.16.11-.38-.02-.53-.35-.39-.61-.84-.79-1.33-.07-.19-.26-.3-.45-.27l-.63.09-.15-1.04.63-.09c.2-.03.35-.19.36-.39.03-.52.16-1.02.38-1.49.08-.18.03-.39-.13-.51l-.51-.38.63-.84.51.38c.16.12.38.11.53-.02.39-.35.84-.61,1.33-.79.19-.07.3-.26.27-.45l-.09-.63,1.04-.15.09.63c.03.2.19.35.39.36.52.03,1.02.16,1.49.38.18.08.39.03.51-.13l.38-.51.84.63-.38.51c-.12.16-.11.38.02.53.35.39.61.84.79,1.33.07.19.26.3.45.27l.63-.09.15,1.04-.63.09c-.2.03-.35.19-.36.39-.03.52-.16,1.02-.38,1.49-.08.18-.03.39.13.51l.51.38-.63.84-.51-.38c-.16-.12-.38-.11-.53.02-.39.35-.84.61-1.33.79-.19.07-.3.26-.27.45l.09.63-1.04.15-.09-.63c-.03-.2-.19-.35-.39-.36-.52-.03-1.02-.16-1.49-.38-.06-.03-.12-.04-.18-.04-.13,0-.26.06-.34.17Z"/>
      <path class="cls-1" d="m6.48,9.04c1.65-.24,2.79-1.77,2.56-3.41-.24-1.65-1.77-2.79-3.41-2.56-1.65.24-2.79,1.77-2.56,3.41.22,1.5,1.51,2.59,2.98,2.59.14,0,.29,0,.43-.03Zm-2.58-2.68c-.17-1.19.66-2.29,1.85-2.46.1-.02.21-.02.31-.02,1.06,0,2,.78,2.15,1.87.17,1.19-.66,2.29-1.84,2.46-1.19.17-2.29-.66-2.46-1.85Z"/>
    </g>
  </g>
</svg>