<?xml version="1.0" encoding="UTF-8"?>
<svg id="Capa_2" data-name="Capa 2" xmlns="http://www.w3.org/2000/svg" viewBox="0 0 7.64 7.64">
  <defs>
    <style>
      .cls-1 {
        fill: #fff;
        stroke-width: 0px;
      }
    </style>
  </defs>
  <g id="Capa_1-2" data-name="Capa 1">
    <g>
      <path class="cls-1" d="m3.35,6.7c-1.85,0-3.35-1.5-3.35-3.35S1.5,0,3.35,0s3.35,1.5,3.35,3.35-1.5,3.35-3.35,3.35Zm0-5.65c-1.27,0-2.3,1.03-2.3,2.3s1.03,2.3,2.3,2.3,2.3-1.04,2.3-2.3-1.03-2.3-2.3-2.3Z"/>
      <path class="cls-1" d="m7.11,7.64c-.13,0-.27-.05-.37-.15l-1.78-1.78c-.21-.21-.21-.54,0-.74.21-.2.54-.2.74,0l1.78,1.78c.21.21.21.54,0,.74-.1.1-.24.15-.37.15Z"/>
    </g>
  </g>
</svg>