<?xml version="1.0" encoding="UTF-8"?>
<svg id="Capa_2" data-name="Capa 2" xmlns="http://www.w3.org/2000/svg" viewBox="0 0 17.84 18.11">
  <defs>
    <style>
      .cls-1 {
        fill: #fff;
        stroke-width: 0px;
      }
    </style>
  </defs>
  <g id="Capa_1-2" data-name="Capa 1">
    <path class="cls-1" d="m15.67,0c-.65,0-1.19.53-1.19,1.19v.8c-.31-.24-.69-.38-1.11-.38-.96,0-1.75.75-1.81,1.7h-2.51c-.06-.95-.85-1.7-1.81-1.7-.6,0-1.13.29-1.46.75-.33-.45-.86-.75-1.46-.75-.42,0-.8.14-1.11.38v-.8c0-.65-.53-1.19-1.19-1.19S.84.53.84,1.19v13.7c-.5.31-.84.86-.84,1.49,0,.96.78,1.74,1.74,1.74h14.35c.96,0,1.74-.78,1.74-1.74,0-.68-.4-1.28-.97-1.56V1.19c0-.65-.53-1.19-1.19-1.19Zm-.48,7.32V1.19c0-.27.22-.48.48-.48s.48.22.48.48v13.44s-.04,0-.07,0h-.9v-7.31Zm-1.81-5.01c.61,0,1.11.5,1.11,1.11s-.5,1.11-1.11,1.11-1.11-.5-1.11-1.11.5-1.11,1.11-1.11Zm-6.13,0c.61,0,1.11.5,1.11,1.11s-.5,1.11-1.11,1.11-1.11-.5-1.11-1.11.5-1.11,1.11-1.11Zm-1.46,2.18c.33.45.86.75,1.46.75.92,0,1.68-.69,1.8-1.58h2.53c.12.89.88,1.58,1.8,1.58.42,0,.8-.14,1.11-.38v1.04c-.31-.24-.69-.38-1.11-.38-.69,0-1.3.39-1.6.96-.31-.57-.91-.96-1.6-.96-.96,0-1.75.75-1.81,1.7H3.21v-2.35c.31.24.69.38,1.11.38.6,0,1.13-.29,1.46-.75Zm4.39,8.96c.94,0,1.72-.72,1.81-1.64h2.51v2.82H3.21v-1.56c.31.24.69.38,1.11.38.94,0,1.72-.72,1.81-1.64h2.24c.09.92.86,1.64,1.81,1.64Zm-1.11-1.81c0-.61.5-1.11,1.11-1.11s1.11.5,1.11,1.11-.5,1.11-1.11,1.11-1.11-.5-1.11-1.11Zm2.92-.18c-.09-.92-.86-1.64-1.81-1.64s-1.72.72-1.81,1.64h-2.24c-.09-.92-.86-1.64-1.81-1.64-.42,0-.8.14-1.11.38v-2.65h5.16c.12.89.88,1.58,1.8,1.58.69,0,1.3-.39,1.6-.96.31.57.91.96,1.6.96.42,0,.8-.14,1.11-.38v2.71h-2.51Zm-2.92-4.14c0-.61.5-1.11,1.11-1.11s1.11.5,1.11,1.11-.5,1.11-1.11,1.11-1.11-.5-1.11-1.11Zm4.32,1.11c-.61,0-1.11-.5-1.11-1.11s.5-1.11,1.11-1.11,1.11.5,1.11,1.11-.5,1.11-1.11,1.11ZM4.32,2.3c.61,0,1.11.5,1.11,1.11h0s0,0,0,0c0,.61-.5,1.11-1.11,1.11s-1.11-.5-1.11-1.11.5-1.11,1.11-1.11Zm0,8.22c.61,0,1.11.5,1.11,1.11s-.5,1.11-1.11,1.11-1.11-.5-1.11-1.11.5-1.11,1.11-1.11ZM1.54,1.19c0-.27.22-.48.48-.48s.48.22.48.48v2.22s0,0,0,0c0,0,0,0,0,0v8.21s0,0,0,0c0,0,0,0,0,0v2.99h-.76c-.07,0-.14,0-.21.01V1.19Zm15.6,15.18c0,.57-.47,1.04-1.04,1.04H1.74c-.57,0-1.04-.47-1.04-1.04s.47-1.04,1.04-1.04h14.35c.57,0,1.04.47,1.04,1.04Z"/>
  </g>
</svg>