<?xml version="1.0" encoding="UTF-8"?>
<svg id="Capa_2" data-name="Capa 2" xmlns="http://www.w3.org/2000/svg" viewBox="0 0 12.09 12.07">
  <defs>
    <style>
      .cls-1 {
        fill-rule: evenodd;
        stroke-width: 0px;
      }
    </style>
  </defs>
  <g id="Capa_1-2" data-name="Capa 1">
    <path class="cls-1" d="m11.61,0H.48c-.24,0-.48.19-.48.48v11.12c0,.24.23.48.48.48h11.13c.29,0,.48-.24.48-.48V.48c0-.29-.19-.48-.48-.48h0Zm-5.57,1.57C3.62,1.57,1.62,3.56,1.62,5.99s2,4.42,4.43,4.47c2.47-.05,4.47-1.99,4.47-4.47S8.52,1.57,6.04,1.57h0Zm3.24,4.42h0c0,.14-.05.23-.14.28l-2.34,1.33-2.33,1.33c-.05.05-.1.05-.14.05s-.1,0-.14-.05c-.09-.05-.14-.14-.14-.23V3.33c0-.1.05-.19.14-.24.1-.05.19-.05.29,0l2.33,1.33,2.34,1.33c.09.05.14.14.14.24h0Zm-3.24,5.03h0c-2.76,0-5-2.24-5-5.03S3.28,1,6.04,1s5.04,2.23,5.04,4.99h0c0,2.8-2.24,5.03-5.04,5.03h0Z"/>
  </g>
</svg>